<svg id="Camada_1" data-name="Camada 1" xmlns="http://www.w3.org/2000/svg" viewBox="0 0 192.52 180.78"><defs><style>.cls-1{fill:#fff;}</style></defs><path class="cls-1" d="M116.46,142.88a12.28,12.28,0,0,1-11-6.84l-6.1-11.43-3.46,6.61a4.94,4.94,0,0,1-.3.49A10.94,10.94,0,0,1,86.79,136h-.07a12.18,12.18,0,0,1-8.45-3.64,12.58,12.58,0,0,1-3.66-8.91V71a12.14,12.14,0,0,1,19.87-9.37l26.66,19.86A4,4,0,0,1,116.31,88L89.56,68.09a1.56,1.56,0,0,1-.2-.16A4,4,0,0,0,82.7,71v52.4a4.42,4.42,0,0,0,4.08,4.46h0a3.16,3.16,0,0,0,2.08-.77l6.83-13a4,4,0,0,1,3.57-2.17h0a4.05,4.05,0,0,1,3.57,2.14l9.74,18.24.08.16a4.15,4.15,0,0,0,5.46,2,4.15,4.15,0,0,0,2-5.46l-9.84-17.5a4.06,4.06,0,0,1,3.53-6h13.88a4,4,0,0,0,3.51-2.54,4.08,4.08,0,0,0-.78-4.4,4,4,0,1,1,5.89-5.55A12.23,12.23,0,0,1,128,113.51h-7.19l6.51,11.59.12.22a12.21,12.21,0,0,1-11,17.55ZM79.18,55.16a4.06,4.06,0,0,0,1.61-5.5l-3.44-6.27a4,4,0,1,0-7.1,3.89l3.44,6.27a4,4,0,0,0,3.55,2.11A4.09,4.09,0,0,0,79.18,55.16Zm-8.56,9.2A4,4,0,0,0,68.54,59L62.06,56.2a4,4,0,1,0-3.24,7.41l6.47,2.84a4,4,0,0,0,5.33-2.09ZM95.85,51.27l2.23-6.68A4,4,0,0,0,90.4,42l-2.23,6.68a4,4,0,0,0,2.56,5.12A4.13,4.13,0,0,0,92,54,4,4,0,0,0,95.85,51.27Zm10.71,10.27,5.47-4a4,4,0,0,0-4.82-6.5l-5.47,4a4.05,4.05,0,0,0,4.82,6.51ZM62.35,84.31l6.07-2.43a4.05,4.05,0,0,0-3-7.52l-6.07,2.43a4.05,4.05,0,0,0,1.51,7.81A4.16,4.16,0,0,0,62.35,84.31Z"/></svg>