<svg id="Camada_1" data-name="Camada 1" xmlns="http://www.w3.org/2000/svg" xmlns:xlink="http://www.w3.org/1999/xlink" viewBox="0 0 169.39 169.39"><defs><style>.cls-1{fill:#fff;}.cls-2{fill:url(#Gradiente_sem_nome_6);}</style><linearGradient id="Gradiente_sem_nome_6" x1="37.35" y1="84.7" x2="132.04" y2="84.7" gradientUnits="userSpaceOnUse"><stop offset="0" stop-color="#015eea"/><stop offset="1" stop-color="#00c0fa"/></linearGradient></defs><circle class="cls-1" cx="84.7" cy="84.7" r="80"/><path class="cls-2" d="M123.72,48.63h-78A8.34,8.34,0,0,0,37.35,57v55.49a8.33,8.33,0,0,0,8.32,8.32h78.05a8.33,8.33,0,0,0,8.32-8.32V57A8.33,8.33,0,0,0,123.72,48.63Zm-1.15,5.55-37.7,37.7-38-37.7ZM42.9,111.29V58.08L69.62,84.57Zm3.92,3.92L73.56,88.47l9.37,9.29a2.76,2.76,0,0,0,3.91,0L96,88.62l26.59,26.59Zm79.67-3.92L99.9,84.7l26.59-26.6Z"/></svg>