<svg xmlns="http://www.w3.org/2000/svg" xmlns:xlink="http://www.w3.org/1999/xlink" width="915" height="617.127" viewBox="0 0 915 617.127">
  <defs>
    <linearGradient id="linear-gradient" x1="0.5" x2="0.5" y2="1" gradientUnits="objectBoundingBox">
      <stop offset="0" stop-color="#69b9ff"/>
      <stop offset="0" stop-color="#0160b2"/>
      <stop offset="1" stop-color="#004179"/>
    </linearGradient>
    <linearGradient id="linear-gradient-2" x1="0.5" x2="0.5" y2="1" gradientUnits="objectBoundingBox">
      <stop offset="0" stop-color="#69b9ff"/>
      <stop offset="0" stop-color="#0160b2"/>
      <stop offset="1" stop-color="#0075d9"/>
    </linearGradient>
    <linearGradient id="linear-gradient-3" y1="1" y2="0" xlink:href="#linear-gradient-2"/>
    <filter id="Subtração_18" x="0" y="0" width="915" height="617.127" filterUnits="userSpaceOnUse">
      <feOffset dx="20" dy="20" input="SourceAlpha"/>
      <feGaussianBlur stdDeviation="40" result="blur"/>
      <feFlood flood-color="#004071" flood-opacity="0.49"/>
      <feComposite operator="in" in2="blur"/>
      <feComposite in="SourceGraphic"/>
    </filter>
  </defs>
  <g id="Grupo_267" data-name="Grupo 267" transform="translate(-1145 6906)">
    <path id="Subtração_22" data-name="Subtração 22" d="M619.988,377.127h-.054c-9.765,0-20.114-.3-30.759-.9-10.853-.609-22.311-1.539-34.057-2.767-11.967-1.25-24.577-2.842-37.479-4.734-13.143-1.927-26.946-4.217-41.025-6.806-23.137-4.254-46.48-8.321-69.38-12.088-22.207-3.653-44.628-7.129-66.641-10.329-21.312-3.1-42.8-6.019-63.871-8.682-20.381-2.576-40.928-4.982-61.07-7.151-38.2-4.112-76.422-7.529-113.613-10.157C67.656,311.082,33.326,309.268,0,308.121V22.365l63.938-1.141L672.4,36.688l.007.009.047.057c.712.877,1.545,1.921,2.546,3.191v333.37c-8.119,1.251-16.8,2.205-25.809,2.838C639.962,376.8,630.137,377.127,619.988,377.127Z" transform="translate(1245 -6846)" fill="url(#linear-gradient)"/>
    <path id="Subtração_20" data-name="Subtração 20" d="M619.988,377.127h-.054c-9.767,0-20.116-.288-30.759-.853-10.863-.577-22.322-1.458-34.057-2.618-11.979-1.184-24.589-2.692-37.479-4.481-13.128-1.823-26.931-3.991-41.025-6.443-23.136-4.026-46.479-7.876-69.38-11.443-22.221-3.46-44.642-6.75-66.641-9.778-21.281-2.928-42.771-5.694-63.871-8.219-20.411-2.442-40.958-4.72-61.07-6.769-38.211-3.893-76.436-7.129-113.613-9.616-34.4-2.3-68.728-4.018-102.038-5.1V41.3l63.938-1.08L672.4,54.862l.015.017.039.046c.714.833,1.571,1.849,2.546,3.02V373.517c-8.116,1.184-16.8,2.087-25.809,2.687C639.97,376.816,630.145,377.127,619.988,377.127Z" transform="translate(1245 -6862)" fill="url(#linear-gradient-2)"/>
    <g transform="matrix(1, 0, 0, 1, 1145, -6906)" filter="url(#Subtração_18)">
      <path id="Subtração_18-2" data-name="Subtração 18" d="M619.988,0h-.054c-9.766,0-20.115.481-30.759,1.423-10.845.96-22.3,2.429-34.057,4.367-11.976,1.975-24.586,4.49-37.478,7.475-13.131,3.04-26.934,6.655-41.025,10.745-23.134,6.715-46.478,13.136-69.382,19.085C385.025,48.864,362.6,54.35,340.593,59.4c-21.3,4.888-42.79,9.5-63.871,13.708-20.406,4.072-40.953,7.87-61.07,11.289-38.193,6.491-76.418,11.887-113.613,16.037-34.393,3.837-68.724,6.7-102.038,8.512V377.127H675V6.021a205.435,205.435,0,0,0-25.811-4.48A266.53,266.53,0,0,0,619.988,0Z" transform="translate(775 477.13) rotate(180)" fill="url(#linear-gradient-3)"/>
    </g>
    <path id="Subtração_16" data-name="Subtração 16" d="M619.988,0h-.054c-9.766,0-20.115.481-30.759,1.423-10.845.96-22.3,2.429-34.057,4.367-11.976,1.975-24.586,4.49-37.478,7.475-13.131,3.04-26.934,6.655-41.025,10.745-23.134,6.715-46.478,13.136-69.382,19.085C385.025,48.864,362.6,54.35,340.593,59.4c-21.3,4.888-42.79,9.5-63.871,13.708-20.406,4.072-40.953,7.87-61.07,11.289-38.193,6.491-76.418,11.887-113.613,16.037-34.393,3.837-68.724,6.7-102.038,8.512V377.127H675V6.021a205.436,205.436,0,0,0-25.811-4.48A266.533,266.533,0,0,0,619.988,0Z" transform="translate(1920 -6446.873) rotate(180)" fill="#08f"/>
  </g>
</svg>
