<svg width="384" height="264" viewBox="0 0 384 264" fill="none" xmlns="http://www.w3.org/2000/svg">
<path d="M3.58 251.72L121.8 155.73L0 43.8301V239.1C0 243.71 1.31 248.03 3.58 251.72Z" fill="#007AFE"/>
<path d="M262.29 155.58L380.47 251.54C382.67 247.89 383.94 243.64 383.94 239.1V43.8301L262.29 155.58Z" fill="#007AFE"/>
<path d="M359.71 0H24.2202C7.61016 0 -0.859844 18.49 11.1802 29.58L181.18 185.77C187.44 191.52 196.49 191.52 202.75 185.77C259.46 133.67 315.99 81.75 372.76 29.58C384.82 18.5 376.33 0 359.71 0Z" fill="#007AFE"/>
<path d="M365.5 262.62L248.87 167.92L214.98 199.05C201.76 211.2 182.18 211.2 168.95 199.05L135.22 168.06L18.6802 262.68C20.4702 263.1 22.3202 263.32 24.2202 263.32H359.71C361.71 263.32 363.65 263.08 365.5 262.62Z" fill="#007AFE"/>
</svg>