<svg xmlns="http://www.w3.org/2000/svg" width="115" height="99" viewBox="0 0 115 99">
  <g id="Grupo_243" data-name="Grupo 243" transform="translate(-1805 -57)">
    <path id="Retângulo_124" data-name="Retângulo 124" d="M23,0h92a0,0,0,0,1,0,0V99a0,0,0,0,1,0,0H23A23,23,0,0,1,0,76V23A23,23,0,0,1,23,0Z" transform="translate(1920 156) rotate(180)" fill="#08f"/>
    <g id="Grupo_109" data-name="Grupo 109" transform="translate(1833.998 74)">
      <path id="Subtração_1" data-name="Subtração 1" d="M29.056,65.478h0L0,45.665H11.173a21.6,21.6,0,0,1,.955-25.853H0L29.056,0l28.8,19.812H45.718a21.592,21.592,0,0,1,.957,25.853H57.852L29.057,65.477ZM24.272,41.192h0a7.3,7.3,0,0,0-2.72,8.41,7.679,7.679,0,0,0,7.322,5.367c.125,0,.254,0,.378-.008a7.859,7.859,0,0,0,7.287-6.289c.6-2.967-.785-6.24-3.148-7.453l-.006,2.113c-.007,1.644-.014,3.343.02,5,.016.466-.04.72-.191.877a.981.981,0,0,1-.732.211h-.1c-1.339-.035-2.564-.052-3.744-.052s-2.3.017-3.375.052h-.093a.972.972,0,0,1-.726-.21,1.215,1.215,0,0,1-.189-.891c.029-1.653.024-3.292.019-5.027,0-.69,0-1.389,0-2.1Zm4.8-3.226h0c.106,0,.213,0,.32,0,4.749.1,7.59,3.084,8.686,9.121,1.134-5.091-.521-9.1-4.544-11a10.907,10.907,0,0,0-4.618-1,10.068,10.068,0,0,0-7.766,3.3C19.3,40.638,18.6,44.9,19.808,46.548,21.04,40.452,23.726,37.966,29.073,37.966Zm-1.228-5.138H28c3.956.058,6.991,1.151,9.02,3.249,2.208,2.282,3.284,5.809,3.2,10.484,2.552-4.827.974-11.148-3.675-14.7A12.162,12.162,0,0,0,29.1,29.385a13.122,13.122,0,0,0-8.987,3.573c-4.087,3.825-5.181,9.394-2.6,13.24-.324-3.761.409-6.636,2.3-9.046A10.122,10.122,0,0,1,27.845,32.828Zm1.341-5.867h0A14.017,14.017,0,0,1,39.527,31.6c3.085,3.2,4.306,7.325,3.843,12.968,2.947-5.639.64-14.057-5.148-18.764a14.682,14.682,0,0,0-9.165-2.949,15.487,15.487,0,0,0-10.688,3.97C13.3,31.675,11.494,38.97,14.175,43.793c.156-9.81,4.656-15.584,13.007-16.7A15.155,15.155,0,0,1,29.185,26.961Zm.09-6.5h0c.563,0,1.13.025,1.684.074a15.362,15.362,0,0,1,13.058,8.53,20.875,20.875,0,0,1,2.2,12.4,2.164,2.164,0,0,0,.2,1.475c3.006-6.892,2.15-17.2-5.309-23.554a18.5,18.5,0,0,0-11.98-4.393,19.13,19.13,0,0,0-11.378,3.763,19.655,19.655,0,0,0-6.52,23.164c-.057-.872-.1-1.751-.133-2.419a18.207,18.207,0,0,1,1.268-8.154,17.2,17.2,0,0,1,7.094-8.211A19.119,19.119,0,0,1,29.276,20.462Z" transform="translate(0.002 0)" fill="#fff"/>
    </g>
  </g>
</svg>
