<svg xmlns="http://www.w3.org/2000/svg" viewBox="0 0 531.37 341.98"><defs><style>.cls-1{fill:#fff;}</style></defs><g id="Camada_2" data-name="Camada 2"><g id="Camada_1-2" data-name="Camada 1"><path class="cls-1" d="M18.81,223.82v-6.91H0v31.85H8.47v-12H18v-6.9H8.47v-6.08Z"/><path class="cls-1" d="M38,224.08v10.81c0,2.74-.31,4.68-.93,5.84a3.28,3.28,0,0,1-3.14,1.73,2.37,2.37,0,0,1-2.25-1.24,7.7,7.7,0,0,1-.69-3.65V224.08H22.42v16.07a9.27,9.27,0,0,0,2.27,6.68A8.36,8.36,0,0,0,31,249.2a10.46,10.46,0,0,0,4.49-.91,7,7,0,0,0,3-2.6H39L40,248.76h6.43V224.08Z"/><path class="cls-1" d="M73.09,226a8.4,8.4,0,0,0-6.37-2.37,10.52,10.52,0,0,0-4.43.87,6.72,6.72,0,0,0-3,2.61h-.51l-1.07-3H51.28v24.68H59.8V238q0-4.19,1-5.9a3.31,3.31,0,0,1,3.12-1.73,2.44,2.44,0,0,1,2.28,1.25,7.92,7.92,0,0,1,.7,3.72v13.46h8.52v-16A9.26,9.26,0,0,0,73.09,226Z"/><path class="cls-1" d="M94.31,214.87v6.6a41.75,41.75,0,0,0,.41,5.79h-.17a8.08,8.08,0,0,0-2.84-2.79A8.27,8.27,0,0,0,81.44,227Q79,230.45,79,236.46a19.62,19.62,0,0,0,1.08,6.81,9.59,9.59,0,0,0,3.05,4.42,7.39,7.39,0,0,0,4.6,1.51,7.22,7.22,0,0,0,6.56-3.55h.32l1.84,3.11h6.42V214.87ZM95,237.21a7.76,7.76,0,0,1-.9,4,3.17,3.17,0,0,1-2.89,1.29,3,3,0,0,1-2.68-1.5,8.39,8.39,0,0,1-.94-4.38,8.92,8.92,0,0,1,.93-4.49,2.88,2.88,0,0,1,2.6-1.58,3.32,3.32,0,0,1,2.95,1.38,8.69,8.69,0,0,1,.93,4.65Z"/><path class="cls-1" d="M127.1,226q-2.61-2.35-7.35-2.35a23.6,23.6,0,0,0-10.9,2.22l2.47,5.61a18.1,18.1,0,0,1,6.85-1.82q3,0,3,3.05v.34l-4.13.13q-5.19.25-8,2.17a6.71,6.71,0,0,0-2.74,5.87,8.14,8.14,0,0,0,2,5.88,7.25,7.25,0,0,0,5.48,2.1,11.71,11.71,0,0,0,4.63-.79,9.83,9.83,0,0,0,3.5-2.92h.18l1.63,3.27h5.9V232.58A8.43,8.43,0,0,0,127.1,226Zm-5.87,13.66a3.25,3.25,0,0,1-1.1,2.54,3.88,3.88,0,0,1-2.65,1c-1.61,0-2.41-.75-2.41-2.26,0-2,1.39-3,4.2-3.09l2-.09Z"/><path class="cls-1" d="M142,236.5a7.84,7.84,0,0,1,1.14-4.56,3.68,3.68,0,0,1,3.2-1.61,9.07,9.07,0,0,1,2.71.4,27,27,0,0,1,2.86,1.08l2.51-6.29a18,18,0,0,0-8.08-1.87q-6.24,0-9.61,3.37c-2.26,2.25-3.37,5.43-3.37,9.52s1,7.2,3.11,9.38a10.41,10.41,0,0,0,5.51,2.92,17.53,17.53,0,0,0,3.68.36h.65a13.86,13.86,0,0,0,7.26-2.17v-6.78a13.22,13.22,0,0,1-7.19,2.18Q142,242.42,142,236.5Zm7.14,14.9a6.39,6.39,0,0,0-2.89-2l.06-.2.13-.43H142l0,.08-1.53,2.94a7.61,7.61,0,0,1,2.33.89,1.52,1.52,0,0,1,.89,1.27c0,.68-.37,1-1.12,1a10.66,10.66,0,0,1-3.21-.59v4.46a13.66,13.66,0,0,0,4.64.63,6.35,6.35,0,0,0,4.34-1.43,5.3,5.3,0,0,0,.82-6.64Z"/><path class="cls-1" d="M176.79,226q-2.61-2.35-7.36-2.35a23.54,23.54,0,0,0-10.88,2.22l2.46,5.61a18.14,18.14,0,0,1,6.86-1.82c2,0,3,1,3,3.05v.34l-4.11.13q-5.2.25-7.95,2.17a6.7,6.7,0,0,0-2.75,5.87,8.14,8.14,0,0,0,2,5.88,7.25,7.25,0,0,0,5.49,2.1,11.66,11.66,0,0,0,4.62-.79,9.74,9.74,0,0,0,3.5-2.92h.17l1.64,3.27h5.9V232.58A8.43,8.43,0,0,0,176.79,226Zm-5.87,13.66a3.25,3.25,0,0,1-1.1,2.54,3.88,3.88,0,0,1-2.65,1c-1.6,0-2.41-.75-2.41-2.26,0-2,1.39-3,4.2-3.09l2-.09Zm3.22-25.33a4.12,4.12,0,0,1-.57,1.59,1.14,1.14,0,0,1-1,.54,5.29,5.29,0,0,1-1.77-.33c-.62-.21-1.25-.46-1.9-.72s-1.26-.49-1.89-.72a5.26,5.26,0,0,0-1.76-.32,4.51,4.51,0,0,0-3.92,1.82,10.7,10.7,0,0,0-1.57,5.62h3.92c.26-1.42.78-2.13,1.57-2.13A5,5,0,0,1,167,220q.9.33,1.86.72c.64.26,1.28.49,1.95.71a5.9,5.9,0,0,0,2,.33,4.38,4.38,0,0,0,3.74-1.9,10.53,10.53,0,0,0,1.61-5.54Z"/><path class="cls-1" d="M206.17,229.62a10.7,10.7,0,0,0-4.31-4.43,13,13,0,0,0-6.42-1.54q-5.88,0-9.13,3.34t-3.26,9.38c0,3.93,1.1,7.06,3.31,9.36a11.83,11.83,0,0,0,8.95,3.47c3.9,0,6.95-1.14,9.12-3.39s3.25-5.41,3.25-9.44A14.33,14.33,0,0,0,206.17,229.62Zm-8,11.59a2.89,2.89,0,0,1-2.8,1.67,3,3,0,0,1-2.86-1.67,11,11,0,0,1-.85-4.84,10.63,10.63,0,0,1,.85-4.79,3,3,0,0,1,2.81-1.6,2.91,2.91,0,0,1,2.83,1.61,10.7,10.7,0,0,1,.83,4.78A11.39,11.39,0,0,1,198.2,241.21Z"/><path class="cls-1" d="M241.39,223.82v-6.91H222.48v31.85h18.91v-7H231.08v-6h9.54v-6.91h-9.54v-5Z"/><path class="cls-1" d="M259.61,214.87v6.6a41.75,41.75,0,0,0,.41,5.79h-.17a8.16,8.16,0,0,0-2.84-2.79A8.27,8.27,0,0,0,246.74,227q-2.42,3.41-2.42,9.42a19.62,19.62,0,0,0,1.08,6.81,9.59,9.59,0,0,0,3,4.42,7.42,7.42,0,0,0,4.61,1.51,7.23,7.23,0,0,0,6.55-3.55h.33l1.83,3.11h6.42V214.87Zm.72,22.34a7.55,7.55,0,0,1-.91,4,3.13,3.13,0,0,1-2.88,1.29,3,3,0,0,1-2.68-1.5,8.39,8.39,0,0,1-.93-4.38,8.93,8.93,0,0,1,.92-4.49,2.88,2.88,0,0,1,2.6-1.58,3.29,3.29,0,0,1,2.94,1.38,8.58,8.58,0,0,1,.94,4.65Z"/><path class="cls-1" d="M291.46,237.81a6.36,6.36,0,0,0-1.88-2.41,16.66,16.66,0,0,0-3.86-2.09,41.82,41.82,0,0,1-4.22-1.81,1.26,1.26,0,0,1-.72-1.08c0-.68.69-1,2.09-1a11.7,11.7,0,0,1,3.09.53,25.76,25.76,0,0,1,3.59,1.29l2.31-5.48a26.75,26.75,0,0,0-4.46-1.56,18.59,18.59,0,0,0-4.57-.53q-4.86,0-7.52,1.91a6.24,6.24,0,0,0-2.65,5.36,7.22,7.22,0,0,0,1.34,4.5,11.22,11.22,0,0,0,4.75,3.17,34.45,34.45,0,0,1,4.5,2,1.44,1.44,0,0,1,.77,1.16c0,.85-.92,1.27-2.76,1.27a18.17,18.17,0,0,1-4.22-.57A25.68,25.68,0,0,1,272.7,241v6.83a20.76,20.76,0,0,0,4.13,1.06,32.88,32.88,0,0,0,4.77.31c3.37,0,5.95-.68,7.76-2a7,7,0,0,0,2.7-6A8.45,8.45,0,0,0,291.46,237.81Z"/><path class="cls-1" d="M317.76,229.62a10.6,10.6,0,0,0-4.29-4.43,13.07,13.07,0,0,0-6.43-1.54q-5.88,0-9.14,3.34t-3.25,9.38c0,3.93,1.1,7.06,3.32,9.36a11.79,11.79,0,0,0,8.94,3.47c3.9,0,6.94-1.14,9.11-3.39s3.26-5.41,3.26-9.44A14.33,14.33,0,0,0,317.76,229.62Zm-8,11.59a2.86,2.86,0,0,1-2.8,1.67,2.94,2.94,0,0,1-2.84-1.67,10.73,10.73,0,0,1-.85-4.84,10.36,10.36,0,0,1,.85-4.79A2.92,2.92,0,0,1,307,230a3,3,0,0,1,2.84,1.61,11,11,0,0,1,.82,4.78A11.22,11.22,0,0,1,309.79,241.21Z"/><path class="cls-1" d="M344.88,226a8.43,8.43,0,0,0-6.38-2.37,10.55,10.55,0,0,0-4.43.87,6.72,6.72,0,0,0-3,2.61h-.51l-1.06-3h-6.42v24.68h8.51V238q0-4.19.95-5.9a3.32,3.32,0,0,1,3.12-1.73,2.43,2.43,0,0,1,2.28,1.25,7.79,7.79,0,0,1,.71,3.72v13.46h8.51v-16A9.3,9.3,0,0,0,344.88,226Z"/><path class="cls-1" d="M385.8,247.38q6.88-3.76,6.88-14.59,0-8.06-3.91-12.22t-11.53-4.15c-5.05,0-8.91,1.39-11.55,4.18s-4,6.85-4,12.15,1.33,9.44,4,12.24,6.49,4.21,11.49,4.21h0v0l0,0,5.62,7.08h10.71Zm-3.75-7.59A5.55,5.55,0,0,1,377.2,242c-4.29,0-6.42-3.08-6.42-9.24s2.15-9.32,6.46-9.32a5.46,5.46,0,0,1,4.78,2.28c1.07,1.51,1.6,3.87,1.6,7S383.1,238.29,382.05,239.79Z"/><path class="cls-1" d="M412.35,224.08v10.81c0,2.74-.31,4.68-.94,5.84a3.28,3.28,0,0,1-3.14,1.73,2.37,2.37,0,0,1-2.25-1.24,7.7,7.7,0,0,1-.69-3.65V224.08h-8.51v16.07a9.27,9.27,0,0,0,2.26,6.68,8.36,8.36,0,0,0,6.34,2.37,10.41,10.41,0,0,0,4.48-.91,6.91,6.91,0,0,0,3-2.6h.5l1.07,3.07h6.42V224.08Z"/><path class="cls-1" d="M448.43,234.93q0-5.48-3-8.38c-2-1.94-4.9-2.9-8.62-2.9q-5.86,0-9,3.34t-3.15,9.59q0,6.06,3.41,9.34t9.56,3.28a29.74,29.74,0,0,0,5.1-.39,15,15,0,0,0,4.14-1.43v-6.12a20.31,20.31,0,0,1-4.09,1.46,19.47,19.47,0,0,1-4.12.42,5.89,5.89,0,0,1-3.89-1.18,4.23,4.23,0,0,1-1.51-3.24h15.22Zm-15.05-1.57a4.48,4.48,0,0,1,1.19-3,3.53,3.53,0,0,1,2.52-.94,3.33,3.33,0,0,1,2.59,1.07,4.12,4.12,0,0,1,1,2.85Z"/><path class="cls-1" d="M460,215.11a6.74,6.74,0,0,0-6.9,0,3.59,3.59,0,0,0-1.07,2.85c0,2.49,1.5,3.75,4.5,3.75s4.56-1.26,4.56-3.75A3.56,3.56,0,0,0,460,215.11Zm-7.75,9v24.68h8.51V224.08Z"/><path class="cls-1" d="M482.62,223.82a13.1,13.1,0,0,0-2.12-.17,7.07,7.07,0,0,0-3.84,1.21,8.41,8.41,0,0,0-3,3.16h-.42L472,224.08h-6.34v24.68h8.51V236.63a5,5,0,0,1,1.26-3.68,5.58,5.58,0,0,1,4.06-1.27,12.7,12.7,0,0,1,2.89.26l.77-8Z"/><path class="cls-1" d="M507.52,229.62a10.62,10.62,0,0,0-4.3-4.43,13,13,0,0,0-6.43-1.54q-5.88,0-9.14,3.34t-3.25,9.38c0,3.93,1.11,7.06,3.32,9.36a11.82,11.82,0,0,0,8.94,3.47c3.9,0,6.94-1.14,9.11-3.39s3.26-5.41,3.26-9.44A14.45,14.45,0,0,0,507.52,229.62Zm-8,11.59a2.86,2.86,0,0,1-2.79,1.67,2.94,2.94,0,0,1-2.85-1.67,10.87,10.87,0,0,1-.85-4.84,10.49,10.49,0,0,1,.85-4.79,3.28,3.28,0,0,1,5.64,0,10.86,10.86,0,0,1,.82,4.78A11.22,11.22,0,0,1,499.54,241.21Z"/><path class="cls-1" d="M521.12,242.24l9.78-12.89v-5.27H511.54v6.51h9.62L511,243.9v4.86h20.42v-6.52Z"/><path class="cls-1" d="M48.35,270.92v16.84a6.72,6.72,0,0,1-1.76,5,6.89,6.89,0,0,1-5,1.74,7.17,7.17,0,0,1-5.21-1.73,6.67,6.67,0,0,1-1.76-5V270.92h-3v16.67a9.44,9.44,0,0,0,2.56,7q2.55,2.53,7.23,2.54a10.27,10.27,0,0,0,7.35-2.53,9.1,9.1,0,0,0,2.67-6.95V270.92Z"/><path class="cls-1" d="M73.84,270.92v14.84c0,.75,0,2,.08,3.71s.14,2.76.16,3.07h-.14l-14.1-21.62H56.43v25.87h2.79V282.08q0-3.18-.29-7h.14l14.15,21.71h3.42V270.92Z"/><path class="cls-1" d="M82,270.92v25.87h3V270.92Z"/><path class="cls-1" d="M105.08,270.92l-5.91,16.63a48.66,48.66,0,0,0-1.65,5.72,47.33,47.33,0,0,0-1.64-5.61l-5.94-16.74H86.76L96,296.79h3l9.32-25.87Z"/><path class="cls-1" d="M124.53,273.59v-2.67H110.1v25.87h14.43V294.1H113.11v-9.52h10.73v-2.65H113.11v-8.34Z"/><path class="cls-1" d="M139.69,285.16q5.19-1.8,5.2-6.93a6.58,6.58,0,0,0-2.28-5.48q-2.28-1.83-7-1.83h-7.1v25.87h3V286h5.39l6.26,10.76h3.56Zm-4.07-1.71H131.5v-9.9h3.91a8.23,8.23,0,0,1,4.85,1.14,4.32,4.32,0,0,1,1.51,3.7,4.69,4.69,0,0,1-1.48,3.79A7.08,7.08,0,0,1,135.62,283.45Z"/><path class="cls-1" d="M162.18,285.59a14.22,14.22,0,0,0-5.6-3.12,19.76,19.76,0,0,1-3.6-1.58,4.55,4.55,0,0,1-1.67-1.57,4.41,4.41,0,0,1-.5-2.21,3.41,3.41,0,0,1,1.34-2.85,6.07,6.07,0,0,1,3.74-1,16,16,0,0,1,6.23,1.34l.93-2.62a17.53,17.53,0,0,0-7.09-1.41,9.3,9.3,0,0,0-5.94,1.77,5.73,5.73,0,0,0-2.26,4.76,6.77,6.77,0,0,0,1.55,4.62,12.34,12.34,0,0,0,5.16,3.06,26,26,0,0,1,3.86,1.64,5.1,5.1,0,0,1,1.8,1.58,4.14,4.14,0,0,1,.54,2.21,3.72,3.72,0,0,1-1.53,3.17,7.41,7.41,0,0,1-4.53,1.15,17.55,17.55,0,0,1-3.71-.4,17.82,17.82,0,0,1-3.47-1.06V296a16.89,16.89,0,0,0,7.08,1.18,10.69,10.69,0,0,0,6.72-1.91,6.34,6.34,0,0,0,2.48-5.32A6.13,6.13,0,0,0,162.18,285.59Z"/><path class="cls-1" d="M167.22,270.92v25.87h3V270.92Z"/><path class="cls-1" d="M192.86,274.26q-3.35-3.33-9.38-3.34h-7.92v25.87h7.16c4.35,0,7.69-1.12,10-3.39s3.48-5.52,3.48-9.79Q196.21,277.61,192.86,274.26Zm-2.55,17.28q-2.7,2.65-8.09,2.65h-3.66V273.52h4.38c3.33,0,5.85.86,7.54,2.56s2.54,4.26,2.54,7.64S192.12,289.78,190.31,291.54Z"/><path class="cls-1" d="M209.4,270.82h-2.53l-10.23,26h3l3.19-8.23h10.37l3.22,8.23h3.12Zm-5.47,15,3-8a34.9,34.9,0,0,0,1.12-3.73c.41,1.47.81,2.72,1.2,3.73l3,8Z"/><path class="cls-1" d="M238.66,274.26q-3.34-3.33-9.38-3.34h-7.92v25.87h7.16c4.35,0,7.69-1.12,10-3.39s3.48-5.52,3.48-9.79Q242,277.61,238.66,274.26Zm-2.55,17.28q-2.7,2.65-8.09,2.65h-3.66V273.52h4.37c3.34,0,5.86.86,7.55,2.56s2.53,4.26,2.53,7.64S237.92,289.78,236.11,291.54Z"/><path class="cls-1" d="M260.42,273.59v-2.67H246v25.87h14.42V294.1H249v-9.52h10.72v-2.65H249v-8.34Z"/><path class="cls-1" d="M289.32,274.26q-3.35-3.33-9.38-3.34H272v25.87h7.17c4.36,0,7.69-1.12,10-3.39s3.48-5.52,3.48-9.79Q292.66,277.61,289.32,274.26Zm-2.55,17.28q-2.72,2.65-8.08,2.65H275V273.52h4.37c3.34,0,5.86.86,7.55,2.56s2.54,4.26,2.54,7.64S288.58,289.78,286.77,291.54Z"/><path class="cls-1" d="M311.08,273.59v-2.67H296.65v25.87h14.43V294.1H299.66v-9.52h10.73v-2.65H299.66v-8.34Z"/><path class="cls-1" d="M337.1,273.59v-2.67H322.67v25.87h3V285.73H336.4v-2.67H325.69v-9.47Z"/><path class="cls-1" d="M358.92,274.05c-2.09-2.36-5-3.54-8.71-3.54s-6.76,1.17-8.84,3.48-3.11,5.59-3.11,9.79,1,7.54,3.1,9.87,5,3.49,8.82,3.49,6.65-1.18,8.74-3.56,3.14-5.62,3.14-9.76S361,276.41,358.92,274.05Zm-2.24,17.75q-2.19,2.71-6.5,2.71a7.94,7.94,0,0,1-6.5-2.72q-2.24-2.71-2.24-8t2.24-7.9a8,8,0,0,1,6.53-2.72,7.85,7.85,0,0,1,6.48,2.7q2.18,2.7,2.18,7.92T356.68,291.8Z"/><path class="cls-1" d="M377.26,285.16q5.21-1.8,5.2-6.93a6.58,6.58,0,0,0-2.28-5.48q-2.26-1.83-7-1.83h-7.09v25.87h3V286h5.4l6.27,10.76h3.55Zm-4.08-1.71h-4.12v-9.9H373a8.24,8.24,0,0,1,4.86,1.14,4.35,4.35,0,0,1,1.51,3.7,4.66,4.66,0,0,1-1.49,3.79A7.06,7.06,0,0,1,373.18,283.45Z"/><path class="cls-1" d="M383.44,270.92v2.67h8.19v23.2h3v-23.2h8.2v-2.67Z"/><path class="cls-1" d="M414.15,270.82h-2.53l-10.23,26h3.05l3.18-8.23H418l3.22,8.23h3.12Zm-5.47,15,3.05-8a34.68,34.68,0,0,0,1.11-3.73c.41,1.47.81,2.72,1.2,3.73l3,8Z"/><path class="cls-1" d="M429.11,294.07V270.92h-3v25.87h14.42v-2.72Z"/><path class="cls-1" d="M457.57,273.59v-2.67H443.14v25.87h14.43V294.1H446.15v-9.52h10.72v-2.65H446.15v-8.34Z"/><path class="cls-1" d="M463.08,294.07l13.72-20.79v-2.36h-17v2.71h13.31l-13.73,20.8v2.36H477.2v-2.72Z"/><path class="cls-1" d="M489.63,270.82H487.1L477.2,296l-.33.83h3l3.19-8.23h10.37l3.22,8.23h3.12Zm-5.47,15,3-8a32.73,32.73,0,0,0,1.12-3.73c.42,1.47.82,2.72,1.2,3.73l3,8Z"/><path class="cls-1" d="M117.61,314.73v-1.38h-11.7v21.42h11.7v-1.38H107.4v-9.18H117v-1.38H107.4v-8.1Z"/><path class="cls-1" d="M128.31,318.54c-2.64,0-4.49.83-5.52,2.49h-.09l-.28-2.18h-1.23v15.92h1.45V326c0-2.15.45-3.71,1.33-4.68a5.43,5.43,0,0,1,4.18-1.44,4,4,0,0,1,3.13,1.09,5,5,0,0,1,1,3.5v10.32h1.43V324.36C133.73,320.48,131.93,318.54,128.31,318.54Z"/><path class="cls-1" d="M147.4,328.76a4.75,4.75,0,0,0-1.47-1.41,17.09,17.09,0,0,0-3.14-1.39,12.31,12.31,0,0,1-3.46-1.68,2.48,2.48,0,0,1-.89-2,2,2,0,0,1,1.14-1.79,6.33,6.33,0,0,1,3.1-.64,11.76,11.76,0,0,1,4.35,1l.54-1.31a12.51,12.51,0,0,0-4.89-1,7.32,7.32,0,0,0-4.2,1,3.26,3.26,0,0,0-1.5,2.83,3.52,3.52,0,0,0,.49,1.91,4.78,4.78,0,0,0,1.45,1.41,19.44,19.44,0,0,0,3.36,1.48,11,11,0,0,1,3.21,1.61,2.59,2.59,0,0,1,1,2,2.38,2.38,0,0,1-1.23,2.09,6.58,6.58,0,0,1-3.58.79,11.19,11.19,0,0,1-5.07-1.2v1.57a11.07,11.07,0,0,0,5.07,1,7.92,7.92,0,0,0,4.62-1.16,3.78,3.78,0,0,0,1.62-3.29A3.44,3.44,0,0,0,147.4,328.76Z"/><path class="cls-1" d="M152.55,313.39a.8.8,0,0,0-.71-.37c-.62,0-.92.46-.92,1.4s.3,1.42.92,1.42a.79.79,0,0,0,.71-.38,1.76,1.76,0,0,0,.26-1A1.69,1.69,0,0,0,152.55,313.39Zm-1.42,5.46v15.92h1.44V318.85Z"/><path class="cls-1" d="M164.15,318.54c-2.64,0-4.49.83-5.51,2.49h-.09l-.28-2.18H157v15.92h1.45V326q0-3.23,1.32-4.68a5.45,5.45,0,0,1,4.19-1.44,4.06,4.06,0,0,1,3.13,1.09,5.06,5.06,0,0,1,1,3.5v10.32h1.43V324.36C169.57,320.48,167.77,318.54,164.15,318.54Z"/><path class="cls-1" d="M183.3,319.93a5.19,5.19,0,0,0-3.92-1.36,12.15,12.15,0,0,0-5.18,1.23l.54,1.26a10,10,0,0,1,4.59-1.23,3.57,3.57,0,0,1,3,1.15,5.48,5.48,0,0,1,.92,3.43v1.06l-3,.09a10.5,10.5,0,0,0-5.62,1.36,4.1,4.1,0,0,0-1.94,3.61,4.35,4.35,0,0,0,1.3,3.34,5.21,5.21,0,0,0,3.65,1.2,6.64,6.64,0,0,0,3-.64,7.63,7.63,0,0,0,2.47-2.18h.11l.37,2.52h1.07V324.18A6,6,0,0,0,183.3,319.93Zm-.14,8.31a5.06,5.06,0,0,1-5.49,5.5,3.74,3.74,0,0,1-2.59-.82,3,3,0,0,1-.91-2.33,3,3,0,0,1,1.43-2.76,10.54,10.54,0,0,1,4.78-1l2.78-.12Z"/><path class="cls-1" d="M196,318.54q-4,0-5.53,2.49h-.09l-.27-2.18h-1.23v15.92h1.45V326q0-3.23,1.32-4.68a5.45,5.45,0,0,1,4.19-1.44A4.08,4.08,0,0,1,199,321a5.06,5.06,0,0,1,1,3.5v10.32h1.44V324.36Q201.4,318.54,196,318.54Z"/><path class="cls-1" d="M216.76,312v5.73c0,1.19,0,2.4.08,3.62h-.08a6.14,6.14,0,0,0-2.26-2.16,6.73,6.73,0,0,0-3-.62,6,6,0,0,0-5,2.18,10,10,0,0,0-1.73,6.31,9,9,0,0,0,1.74,6,6.29,6.29,0,0,0,5,2.05,5.91,5.91,0,0,0,5.22-2.73h.11l.37,2.43h1V312Zm0,15.06c0,2.41-.42,4.13-1.27,5.18a4.76,4.76,0,0,1-4,1.57c-3.51,0-5.25-2.27-5.25-6.77a9.1,9.1,0,0,1,1.3-5.32,4.51,4.51,0,0,1,3.92-1.83,4.75,4.75,0,0,1,4,1.61c.82,1.08,1.24,2.85,1.24,5.32Z"/><path class="cls-1" d="M233.94,320.75a6.38,6.38,0,0,0-5.15-2.21,6.48,6.48,0,0,0-5.18,2.18,8.89,8.89,0,0,0-1.9,6.07,10.71,10.71,0,0,0,.85,4.37,6.53,6.53,0,0,0,2.45,2.89,6.82,6.82,0,0,0,3.69,1,6.54,6.54,0,0,0,5.22-2.2,10.71,10.71,0,0,0,0-12.12Zm-1.1,11.16a5.45,5.45,0,0,1-8.15,0,9.82,9.82,0,0,1,0-10.24,4.86,4.86,0,0,1,4.06-1.81,4.94,4.94,0,0,1,4.1,1.82,8,8,0,0,1,1.45,5.11A8.12,8.12,0,0,1,232.84,331.91Z"/><path class="cls-1" d="M258.35,325.83a8.08,8.08,0,0,0-1.64-5.33,5.45,5.45,0,0,0-4.43-2,6.21,6.21,0,0,0-5.06,2.29,9.37,9.37,0,0,0-1.87,6.11,8.57,8.57,0,0,0,2,6,6.92,6.92,0,0,0,5.41,2.14,13.88,13.88,0,0,0,2.51-.22,11.75,11.75,0,0,0,2.5-.8v-1.32a15.19,15.19,0,0,1-2.62.82,13.08,13.08,0,0,1-2.39.19,5.38,5.38,0,0,1-4.3-1.72,7.5,7.5,0,0,1-1.53-5h11.47ZM247,325.72a7.28,7.28,0,0,1,1.62-4.38,4.81,4.81,0,0,1,3.7-1.51,4,4,0,0,1,3.32,1.56,6.94,6.94,0,0,1,1.2,4.33Z"/><path class="cls-1" d="M275.66,313.26h-1l-8.62,21.51h1.66l3-7.56h8.7l3,7.56h1.69Zm-4.38,12.61,3-7.69a23.86,23.86,0,0,0,.87-2.56c.34,1.08.63,1.92.88,2.52l2.91,7.73Z"/><path class="cls-1" d="M297.62,320.66a5.9,5.9,0,0,0-4.91-2.12,5.76,5.76,0,0,0-5.25,2.58h-.09l-.28-2.27h-1.22V342h1.45v-6.07q0-1.28-.06-2.37l0-1.23h.1a5.83,5.83,0,0,0,5.36,2.76,5.92,5.92,0,0,0,4.85-2.17,9.29,9.29,0,0,0,1.78-6.09A9.65,9.65,0,0,0,297.62,320.66ZM296.43,332a4.42,4.42,0,0,1-3.78,1.82,4.87,4.87,0,0,1-4.08-1.6c-.84-1.07-1.25-2.84-1.25-5.33v-.47q0-3.47,1.3-5a5.05,5.05,0,0,1,4.09-1.53c3.38,0,5.07,2.33,5.07,7A8.38,8.38,0,0,1,296.43,332Z"/><path class="cls-1" d="M309.09,318.54a4.84,4.84,0,0,0-2.69.71,6.73,6.73,0,0,0-2.1,2.47h-.1l-.15-2.87h-1.23v15.92h1.46V326a7.14,7.14,0,0,1,1.29-4.37,4,4,0,0,1,3.35-1.72,8.24,8.24,0,0,1,2.06.25l.28-1.39A12.13,12.13,0,0,0,309.09,318.54Z"/><path class="cls-1" d="M325.67,325.83a8.19,8.19,0,0,0-1.62-5.33,5.5,5.5,0,0,0-4.44-2,6.18,6.18,0,0,0-5.06,2.29,9.37,9.37,0,0,0-1.87,6.11,8.57,8.57,0,0,0,1.94,6,6.94,6.94,0,0,0,5.41,2.14,14.07,14.07,0,0,0,2.52-.22,11.68,11.68,0,0,0,2.49-.8v-1.32a14.67,14.67,0,0,1-2.62.82,12.93,12.93,0,0,1-2.39.19,5.4,5.4,0,0,1-4.3-1.72,7.55,7.55,0,0,1-1.53-5h11.47Zm-11.39-.11a7.28,7.28,0,0,1,1.64-4.38,4.74,4.74,0,0,1,3.69-1.51,4,4,0,0,1,3.32,1.56,6.94,6.94,0,0,1,1.21,4.33Z"/><path class="cls-1" d="M336.28,318.54c-2.64,0-4.49.83-5.52,2.49h-.09l-.27-2.18h-1.24v15.92h1.46V326q0-3.23,1.32-4.68a5.43,5.43,0,0,1,4.18-1.44,4,4,0,0,1,3.13,1.09,5,5,0,0,1,1,3.5v10.32h1.44V324.36C341.7,320.48,339.9,318.54,336.28,318.54Z"/><path class="cls-1" d="M357.06,312v5.73c0,1.19,0,2.4.09,3.62h-.09a6.12,6.12,0,0,0-2.25-2.16,6.78,6.78,0,0,0-3-.62,6.05,6.05,0,0,0-5,2.18,10,10,0,0,0-1.73,6.31,9,9,0,0,0,1.75,6,6.26,6.26,0,0,0,5,2.05,5.87,5.87,0,0,0,5.21-2.73h.12l.36,2.43h1V312Zm0,15.06c0,2.41-.41,4.13-1.25,5.18a4.82,4.82,0,0,1-4,1.57c-3.5,0-5.26-2.27-5.26-6.77a9,9,0,0,1,1.31-5.32,4.5,4.5,0,0,1,3.91-1.83,4.73,4.73,0,0,1,4,1.61q1.24,1.62,1.24,5.32Z"/><path class="cls-1" d="M375,325.83a8.19,8.19,0,0,0-1.62-5.33,5.5,5.5,0,0,0-4.44-2,6.18,6.18,0,0,0-5.06,2.29,9.37,9.37,0,0,0-1.87,6.11,8.57,8.57,0,0,0,1.94,6,6.94,6.94,0,0,0,5.41,2.14,14.07,14.07,0,0,0,2.52-.22,11.68,11.68,0,0,0,2.49-.8v-1.32a14.93,14.93,0,0,1-2.62.82,12.93,12.93,0,0,1-2.39.19,5.38,5.38,0,0,1-4.3-1.72,7.5,7.5,0,0,1-1.53-5H375Zm-11.39-.11a7.28,7.28,0,0,1,1.63-4.38,4.78,4.78,0,0,1,3.7-1.51,4,4,0,0,1,3.32,1.56,6.94,6.94,0,0,1,1.2,4.33Z"/><path class="cls-1" d="M385.63,318.54c-2.64,0-4.49.83-5.52,2.49H380l-.28-2.18h-1.23v15.92H380V326c0-2.15.45-3.71,1.33-4.68a5.43,5.43,0,0,1,4.18-1.44A4,4,0,0,1,388.6,321a5,5,0,0,1,1,3.5v10.32h1.44V324.36C391.05,320.48,389.25,318.54,385.63,318.54Z"/><path class="cls-1" d="M406.41,312v5.73c0,1.19,0,2.4.09,3.62h-.09a6.2,6.2,0,0,0-2.25-2.16,6.78,6.78,0,0,0-3-.62,6.05,6.05,0,0,0-5,2.18,10,10,0,0,0-1.73,6.31,9,9,0,0,0,1.75,6,6.26,6.26,0,0,0,5,2.05,5.89,5.89,0,0,0,5.21-2.73h.12l.36,2.43h1V312Zm0,15.06c0,2.41-.41,4.13-1.25,5.18a4.82,4.82,0,0,1-4,1.57c-3.51,0-5.26-2.27-5.26-6.77a9,9,0,0,1,1.31-5.32,4.5,4.5,0,0,1,3.91-1.83,4.74,4.74,0,0,1,4,1.61q1.24,1.62,1.24,5.32Z"/><path class="cls-1" d="M423.59,320.75a6.36,6.36,0,0,0-5.14-2.21,6.52,6.52,0,0,0-5.19,2.18,8.93,8.93,0,0,0-1.88,6.07,10.71,10.71,0,0,0,.84,4.37,6.46,6.46,0,0,0,2.45,2.89,6.79,6.79,0,0,0,3.69,1,6.57,6.57,0,0,0,5.22-2.2,10.73,10.73,0,0,0,0-12.12Zm-1.09,11.16a5.46,5.46,0,0,1-8.16,0,9.88,9.88,0,0,1,0-10.24,5.49,5.49,0,0,1,8.16,0,7.91,7.91,0,0,1,1.47,5.11A8.12,8.12,0,0,1,422.5,331.91Z"/><path class="cls-1" d="M331.2,93.58a65.15,65.15,0,0,0-11.8-37.43h40.1L265.68,0,171.87,56.15H212A65.28,65.28,0,0,0,212,131h-40.1l93.81,56.15L359.5,131H319.4A65.15,65.15,0,0,0,331.2,93.58ZM287.2,132c0,.46,0,.92-.05,1.37,0,0,0,0,0,.06a21.51,21.51,0,0,1-43-1.43V132c0-.16,0-.33,0-.5s0-.38,0-.57,0-.67.08-1v-.06a21.47,21.47,0,0,1,8.28-14.9V115l.13-.1v21.61h26V114.9l.13.1v-.07a21.47,21.47,0,0,1,8.36,16c0,.05,0,.1,0,.15,0,.3,0,.59,0,.88Zm5.58,1.33c0-.47,0-.94,0-1.42a27.14,27.14,0,1,0-54.27,0c0,.48,0,1,0,1.42a28.17,28.17,0,0,1-1.43-8.9,28.53,28.53,0,1,1,57.06,0A28.18,28.18,0,0,1,292.78,133.37Zm7.34-5.29a36.06,36.06,0,0,0,.19-3.61,34.63,34.63,0,1,0-69.25,0,35.9,35.9,0,0,0,.19,3.61,36.49,36.49,0,1,1,68.87,0Zm7.67-3.08a43,43,0,1,0-84.21,0,46.32,46.32,0,1,1,84.21,0ZM265.68,52.41A53.31,53.31,0,0,0,214.57,121a58,58,0,1,1,102.23,0,53.31,53.31,0,0,0-51.12-68.57Z"/></g></g></svg>