<svg id="Camada_1" data-name="Camada 1" xmlns="http://www.w3.org/2000/svg" viewBox="0 0 879.65 607.3"><defs><style>.cls-1{fill:#fff;}</style></defs><path class="cls-1" d="M440,20.88l-129,81.6h50.51c-27.45,41.35-22,81.06,0,111h-50L440,298.88l128.45-85.41H518c19.22-26.66,29.1-68,0-111.53h51Zm.55,227.4c-18.66.55-34-14.69-34.58-33.18a32.48,32.48,0,0,1,13.17-27.75V223.8h40.08V187.35c9.33,6,14.27,16.32,14.27,27.2A33.83,33.83,0,0,1,440.59,248.28Zm39-32.09c-2.2-25-15.92-40.26-37.33-42.44-25.8-.54-41.17,17.95-42.27,42.44-7.68-28.84,6-52.78,40.62-54.41C475.18,163.41,487.8,190.62,479.57,216.19Zm9.33-3.27c4.94-39.71-22-59.3-45-60.93a45.51,45.51,0,0,0-17,1.63c-26.35,7.07-42.27,33.73-35.68,59.85-23.06-34.82,13.17-79.43,51.6-75.63C476.82,135.67,508.66,178.1,488.9,212.92Zm14.27-8.7h0c6-51.69-29.64-75.08-59.28-77.8-38.43-2.72-78.5,32.64-67,77.8-23.61-40.26,14.82-100.11,64.77-95.75C485.61,106.29,524,160.69,503.17,204.22Zm12.08-4.36h0c18.66-147.43-180-123.49-151,.55-26.9-64.2,15.37-123.5,74.66-125.67C499.88,73.65,542.15,136.21,515.25,199.86Z"/><path class="cls-1" d="M94.07,361.52v10.17h17.82v7.15H94.07v14H85.16v-38.5h29.09v7.15Z"/><path class="cls-1" d="M148.74,363.28v29.59H140.6v-3.52a11.52,11.52,0,0,1-4.07,2.94,12.79,12.79,0,0,1-5.12,1q-5.82,0-9.24-3.36T118.76,380V363.28h8.58v15.45q0,7.15,6,7.15a6.44,6.44,0,0,0,4.95-2c1.24-1.34,1.87-3.33,1.87-6V363.28Z"/><path class="cls-1" d="M183.58,366.14q3.39,3.3,3.38,9.79v16.94h-8.58V377.25q0-3.53-1.54-5.25a5.62,5.62,0,0,0-4.45-1.74,6.81,6.81,0,0,0-5.17,2q-1.93,2-1.93,6v14.63h-8.58V363.28h8.2v3.46a11.44,11.44,0,0,1,4.23-2.88,14.75,14.75,0,0,1,5.56-1A12.17,12.17,0,0,1,183.58,366.14Z"/><path class="cls-1" d="M225.19,352.06v40.81H217v-3.41q-3.18,3.85-9.24,3.85a15.3,15.3,0,0,1-7.56-1.87,13.44,13.44,0,0,1-5.31-5.34,17.75,17.75,0,0,1,0-16.06,13.41,13.41,0,0,1,5.31-5.33,15.3,15.3,0,0,1,7.56-1.87q5.67,0,8.86,3.57V352.06Zm-10.56,32a9.38,9.38,0,0,0,0-11.93,7.7,7.7,0,0,0-10.84,0,9.38,9.38,0,0,0,0,11.93,7.7,7.7,0,0,0,10.84,0Z"/><path class="cls-1" d="M255.6,366.11q3.69,3.27,3.69,9.87v16.89h-8v-3.69q-2.43,4.13-9,4.13a14,14,0,0,1-5.92-1.16A8.83,8.83,0,0,1,232.5,389a8.27,8.27,0,0,1-1.32-4.62,7.72,7.72,0,0,1,3.11-6.49q3.11-2.36,9.6-2.36h6.82a5.47,5.47,0,0,0-1.71-4.32,7.48,7.48,0,0,0-5.11-1.51,15.07,15.07,0,0,0-4.65.74,12.47,12.47,0,0,0-3.88,2l-3.08-6a18.89,18.89,0,0,1,5.8-2.64,26.19,26.19,0,0,1,7-.93C249.63,362.84,253.14,363.93,255.6,366.11Zm-7.31,20.41a5.62,5.62,0,0,0,2.42-3v-3h-5.89q-5.28,0-5.28,3.47a3.08,3.08,0,0,0,1.29,2.61,5.87,5.87,0,0,0,3.55,1A7.47,7.47,0,0,0,248.29,386.52Z"/><path class="cls-1" d="M273.17,391.36a14.6,14.6,0,0,1-5.88-5.42,15.65,15.65,0,0,1,0-15.73,14.6,14.6,0,0,1,5.88-5.42,18.23,18.23,0,0,1,8.5-2,16.49,16.49,0,0,1,8.17,2,11.6,11.6,0,0,1,5.09,5.58L288.27,374a7.28,7.28,0,0,0-6.65-4.07,7.53,7.53,0,0,0-5.56,2.2,9.27,9.27,0,0,0,0,12,7.53,7.53,0,0,0,5.56,2.2,7.2,7.2,0,0,0,6.65-4.07l6.66,3.63a11.83,11.83,0,0,1-5.09,5.5,16.29,16.29,0,0,1-8.17,2A18.23,18.23,0,0,1,273.17,391.36Zm2.56,14a8,8,0,0,1-2.31-.86l1.32-3.68a8.35,8.35,0,0,0,3.58.82c1.9,0,2.86-.58,2.86-1.76s-.9-1.59-2.7-1.59h-1.87l1.43-5.83h4.57l-.77,3.19a5.72,5.72,0,0,1,3.6,1.51,4.24,4.24,0,0,1,1.18,3.05,4.54,4.54,0,0,1-2.2,4,10.53,10.53,0,0,1-5.88,1.46A13.14,13.14,0,0,1,275.73,405.33Z"/><path class="cls-1" d="M322.37,366.11q3.69,3.27,3.68,9.87v16.89h-8v-3.69c-1.62,2.75-4.62,4.13-9,4.13a14,14,0,0,1-5.91-1.16,8.78,8.78,0,0,1-3.82-3.19,8.27,8.27,0,0,1-1.32-4.62,7.72,7.72,0,0,1,3.11-6.49q3.1-2.36,9.6-2.36h6.81a5.46,5.46,0,0,0-1.7-4.32,7.5,7.5,0,0,0-5.11-1.51,15.07,15.07,0,0,0-4.65.74,12.47,12.47,0,0,0-3.88,2l-3.08-6a18.89,18.89,0,0,1,5.8-2.64,26.19,26.19,0,0,1,7-.93Q318.68,362.84,322.37,366.11Zm-8.17-7a19.72,19.72,0,0,1-2.5-1.57,14.64,14.64,0,0,0-1.46-1,2.25,2.25,0,0,0-1.12-.33,2.38,2.38,0,0,0-1.87.8,3.5,3.5,0,0,0-.78,2.28h-4.34a9.62,9.62,0,0,1,1.84-5.85,5.93,5.93,0,0,1,7.15-1.6,20.76,20.76,0,0,1,2.56,1.62,14.64,14.64,0,0,0,1.46,1,2.25,2.25,0,0,0,1.12.33,2.43,2.43,0,0,0,1.85-.79,3.32,3.32,0,0,0,.8-2.18h4.34a9.3,9.3,0,0,1-1.84,5.72,6,6,0,0,1-7.21,1.57Zm.85,27.45a5.54,5.54,0,0,0,2.42-3v-3h-5.88q-5.28,0-5.28,3.47a3.08,3.08,0,0,0,1.29,2.61,5.84,5.84,0,0,0,3.55,1A7.41,7.41,0,0,0,315.05,386.52Z"/><path class="cls-1" d="M339.83,391.36a14.51,14.51,0,0,1-5.8-5.42,15.84,15.84,0,0,1,0-15.73,14.51,14.51,0,0,1,5.8-5.42,17.78,17.78,0,0,1,8.39-2,17.6,17.6,0,0,1,8.36,2,14.5,14.5,0,0,1,5.77,5.42,15.84,15.84,0,0,1,0,15.73,14.5,14.5,0,0,1-5.77,5.42,17.6,17.6,0,0,1-8.36,1.95A17.78,17.78,0,0,1,339.83,391.36ZM353.64,384a9.49,9.49,0,0,0,0-11.93,7.15,7.15,0,0,0-5.42-2.23,7.23,7.23,0,0,0-5.45,2.23,9.38,9.38,0,0,0,0,11.93,7.23,7.23,0,0,0,5.45,2.23A7.15,7.15,0,0,0,353.64,384Z"/><path class="cls-1" d="M416.14,385.72v7.15H386.33v-38.5h29.1v7.15H395.19v8.36h17.87v6.93H395.19v8.91Z"/><path class="cls-1" d="M452.55,352.06v40.81h-8.19v-3.41q-3.19,3.85-9.24,3.85a15.3,15.3,0,0,1-7.56-1.87,13.38,13.38,0,0,1-5.31-5.34,17.67,17.67,0,0,1,0-16.06,13.35,13.35,0,0,1,5.31-5.33,15.3,15.3,0,0,1,7.56-1.87c3.77,0,6.73,1.19,8.85,3.57V352.06ZM442,384a9.35,9.35,0,0,0,0-11.93,7.69,7.69,0,0,0-10.83,0,9.35,9.35,0,0,0,0,11.93A7.69,7.69,0,0,0,442,384Z"/><path class="cls-1" d="M463.22,392.4a18.76,18.76,0,0,1-5.61-2.28l2.86-6.16a18.09,18.09,0,0,0,4.79,2.06,20.11,20.11,0,0,0,5.5.8q5.44,0,5.44-2.7a1.9,1.9,0,0,0-1.48-1.81,21.9,21.9,0,0,0-4.57-.94,42.35,42.35,0,0,1-6-1.26,9.29,9.29,0,0,1-4.1-2.53,7.21,7.21,0,0,1-1.73-5.17,8.12,8.12,0,0,1,1.62-5,10.45,10.45,0,0,1,4.73-3.38,20.12,20.12,0,0,1,7.34-1.21,28.84,28.84,0,0,1,6.25.69,17.73,17.73,0,0,1,5.14,1.89l-2.86,6.11a17.08,17.08,0,0,0-8.53-2.2,8.68,8.68,0,0,0-4.12.77,2.26,2.26,0,0,0-1.38,2A2,2,0,0,0,468,374a25.77,25.77,0,0,0,4.73,1.05,49.69,49.69,0,0,1,5.94,1.29,8.88,8.88,0,0,1,4,2.5,7.09,7.09,0,0,1,1.71,5.06,7.81,7.81,0,0,1-1.65,4.9,10.59,10.59,0,0,1-4.81,3.33,21.69,21.69,0,0,1-7.51,1.18A28.56,28.56,0,0,1,463.22,392.4Z"/><path class="cls-1" d="M495.37,391.36a14.45,14.45,0,0,1-5.8-5.42,15.84,15.84,0,0,1,0-15.73,14.45,14.45,0,0,1,5.8-5.42,19,19,0,0,1,16.75,0,14.56,14.56,0,0,1,5.77,5.42,15.84,15.84,0,0,1,0,15.73,14.56,14.56,0,0,1-5.77,5.42,19,19,0,0,1-16.75,0Zm13.8-7.32a9.45,9.45,0,0,0,0-11.93,7.11,7.11,0,0,0-5.41-2.23,7.23,7.23,0,0,0-5.45,2.23,9.38,9.38,0,0,0,0,11.93,7.23,7.23,0,0,0,5.45,2.23A7.11,7.11,0,0,0,509.17,384Z"/><path class="cls-1" d="M552.57,366.14q3.38,3.3,3.38,9.79v16.94h-8.58V377.25q0-3.53-1.54-5.25a5.63,5.63,0,0,0-4.45-1.74,6.81,6.81,0,0,0-5.17,2q-1.94,2-1.93,6v14.63H525.7V363.28h8.2v3.46a11.36,11.36,0,0,1,4.23-2.88,14.75,14.75,0,0,1,5.56-1A12.19,12.19,0,0,1,552.57,366.14Z"/><path class="cls-1" d="M621.51,397a12.26,12.26,0,0,1-4.54,3.52,14,14,0,0,1-5.85,1.21,16.26,16.26,0,0,1-7.76-1.84,33.41,33.41,0,0,1-7.92-6.52,21.6,21.6,0,0,1-9.32-3.35,18.93,18.93,0,0,1-6.38-7,19.66,19.66,0,0,1-2.28-9.43,19.37,19.37,0,0,1,2.72-10.2,19.16,19.16,0,0,1,7.53-7.13,23.87,23.87,0,0,1,21.59,0,19.52,19.52,0,0,1,7.54,7.13,20.27,20.27,0,0,1-1,22,19.5,19.5,0,0,1-10,7,9.72,9.72,0,0,0,2.66,2.06,6.26,6.26,0,0,0,2.78.63,8.37,8.37,0,0,0,6.27-2.86ZM588,380a11.27,11.27,0,0,0,4.32,4.37,12.87,12.87,0,0,0,12.32,0A11.27,11.27,0,0,0,609,380a13.75,13.75,0,0,0,0-12.76,11.27,11.27,0,0,0-4.32-4.37,12.87,12.87,0,0,0-12.32,0,11.27,11.27,0,0,0-4.32,4.37A13.83,13.83,0,0,0,588,380Z"/><path class="cls-1" d="M655.5,363.28v29.59h-8.14v-3.52a11.43,11.43,0,0,1-4.07,2.94,12.78,12.78,0,0,1-5.11,1q-5.83,0-9.24-3.36T625.53,380V363.28h8.58v15.45q0,7.15,6,7.15a6.44,6.44,0,0,0,4.95-2q1.88-2,1.87-6V363.28Z"/><path class="cls-1" d="M692.3,380.49H669.91a7,7,0,0,0,2.86,4.35,9.48,9.48,0,0,0,5.61,1.59,11.34,11.34,0,0,0,4.1-.68,10,10,0,0,0,3.33-2.18l4.56,4.95q-4.18,4.78-12.21,4.79a19.29,19.29,0,0,1-8.85-1.95,14.27,14.27,0,0,1-5.94-5.42,14.87,14.87,0,0,1-2.09-7.87,15.07,15.07,0,0,1,2.06-7.83,14.4,14.4,0,0,1,5.66-5.45,16.66,16.66,0,0,1,8.06-2,16.48,16.48,0,0,1,7.87,1.87,13.69,13.69,0,0,1,5.52,5.36,16,16,0,0,1,2,8.11C692.46,378.29,692.41,379.06,692.3,380.49ZM672.22,371a7,7,0,0,0-2.42,4.51h14.58A7.12,7.12,0,0,0,682,371a7.24,7.24,0,0,0-4.84-1.68A7.39,7.39,0,0,0,672.22,371Z"/><path class="cls-1" d="M698.62,357.78a4.65,4.65,0,0,1,0-6.82,5.42,5.42,0,0,1,3.85-1.38,5.57,5.57,0,0,1,3.85,1.32,4.23,4.23,0,0,1,1.48,3.3,4.66,4.66,0,0,1-1.48,3.55,5.35,5.35,0,0,1-3.85,1.4A5.42,5.42,0,0,1,698.62,357.78Zm-.44,5.5h8.58v29.59h-8.58Z"/><path class="cls-1" d="M727.08,363.94a15.47,15.47,0,0,1,6-1.1v7.92c-1-.07-1.59-.11-1.92-.11a7.9,7.9,0,0,0-5.78,2.06q-2.08,2.07-2.09,6.19v14h-8.58V363.28h8.2v3.9A9.53,9.53,0,0,1,727.08,363.94Z"/><path class="cls-1" d="M743.64,391.36a14.45,14.45,0,0,1-5.8-5.42,15.84,15.84,0,0,1,0-15.73,14.45,14.45,0,0,1,5.8-5.42,19,19,0,0,1,16.75,0,14.56,14.56,0,0,1,5.77,5.42,15.84,15.84,0,0,1,0,15.73,14.56,14.56,0,0,1-5.77,5.42,19,19,0,0,1-16.75,0Zm13.8-7.32a9.45,9.45,0,0,0,0-11.93,7.11,7.11,0,0,0-5.41-2.23,7.23,7.23,0,0,0-5.45,2.23,9.38,9.38,0,0,0,0,11.93,7.23,7.23,0,0,0,5.45,2.23A7.11,7.11,0,0,0,757.44,384Z"/><path class="cls-1" d="M798,386.27v6.6h-26.4V387.7l15.07-17.82H771.94v-6.6h25.52v5.17l-15.07,17.82Z"/><path class="cls-1" d="M131.79,462.33q-3.75-3.84-3.74-11v-19.1h4.8V451.1q0,10.8,9.45,10.8c3.07,0,5.43-.89,7.06-2.66s2.45-4.49,2.45-8.14V432.19h4.65v19.1q0,7.24-3.74,11.07t-10.47,3.81Q135.53,466.17,131.79,462.33Z"/><path class="cls-1" d="M186.92,442.92q2.85,2.81,2.85,8.23v14.64h-4.6V451.68a7.83,7.83,0,0,0-1.78-5.57,6.67,6.67,0,0,0-5.09-1.87,7.89,7.89,0,0,0-5.9,2.18,8.53,8.53,0,0,0-2.16,6.26v13.11h-4.61V440.35H170v3.84a9.07,9.07,0,0,1,3.77-3,13.27,13.27,0,0,1,5.4-1.05A10.51,10.51,0,0,1,186.92,442.92Z"/><path class="cls-1" d="M198.39,434.59a2.85,2.85,0,0,1-.89-2.11,2.93,2.93,0,0,1,.89-2.14,3,3,0,0,1,2.23-.89,3.11,3.11,0,0,1,2.23.84,2.77,2.77,0,0,1,.89,2.09,3,3,0,0,1-3.12,3.07A3.08,3.08,0,0,1,198.39,434.59Zm-.07,5.76h4.6v25.44h-4.6Z"/><path class="cls-1" d="M234.22,440.35l-11.13,25.44h-4.71l-11.14-25.44H212l8.74,20.4,8.93-20.4Z"/><path class="cls-1" d="M260.72,454.6H240.08A7.93,7.93,0,0,0,243,460a9.63,9.63,0,0,0,6.26,2,9.45,9.45,0,0,0,7.35-3.07l2.54,3a11.08,11.08,0,0,1-4.3,3.07,16.13,16.13,0,0,1-12.88-.6,11.85,11.85,0,0,1-4.83-4.63,13.37,13.37,0,0,1-1.7-6.72,13.52,13.52,0,0,1,1.65-6.67,12,12,0,0,1,4.56-4.64,13,13,0,0,1,6.56-1.65,12.74,12.74,0,0,1,6.5,1.65,11.65,11.65,0,0,1,4.46,4.64,14,14,0,0,1,1.61,6.81A13.79,13.79,0,0,1,260.72,454.6Zm-18-8.59a8.11,8.11,0,0,0-2.61,5.28H256.4a8.19,8.19,0,0,0-2.62-5.25,8.6,8.6,0,0,0-11.09,0Z"/><path class="cls-1" d="M275.16,441.26a12.91,12.91,0,0,1,5.72-1.15v4.46a9.48,9.48,0,0,0-1.06-.05,7.74,7.74,0,0,0-5.88,2.24,8.83,8.83,0,0,0-2.14,6.36v12.67h-4.6V440.35h4.41v4.27A7.92,7.92,0,0,1,275.16,441.26Z"/><path class="cls-1" d="M288,465.24a13.16,13.16,0,0,1-4.51-2.14l1.92-3.65a13.78,13.78,0,0,0,4.08,1.92,16.75,16.75,0,0,0,4.84.72c4,0,6.05-1.15,6.05-3.45a2.26,2.26,0,0,0-.81-1.83,5.24,5.24,0,0,0-2-1c-.82-.21-2-.44-3.48-.7a35.1,35.1,0,0,1-5-1.1,7.78,7.78,0,0,1-3.34-2.11,5.92,5.92,0,0,1-1.39-4.18,6.52,6.52,0,0,1,2.88-5.54,12.85,12.85,0,0,1,7.73-2.09,21.61,21.61,0,0,1,5.09.62,13.83,13.83,0,0,1,4.17,1.68l-2,3.65a13.28,13.28,0,0,0-7.35-2,8.47,8.47,0,0,0-4.46,1,2.9,2.9,0,0,0-1.54,2.55,2.42,2.42,0,0,0,.87,2,5.32,5.32,0,0,0,2.13,1.05c.85.23,2,.48,3.58.77a38.63,38.63,0,0,1,5,1.13,7.47,7.47,0,0,1,3.24,2,5.7,5.7,0,0,1,1.34,4,6.36,6.36,0,0,1-2.95,5.5,14,14,0,0,1-8,2A21.32,21.32,0,0,1,288,465.24Z"/><path class="cls-1" d="M310.85,434.59a2.85,2.85,0,0,1-.89-2.11,2.93,2.93,0,0,1,.89-2.14,3,3,0,0,1,2.23-.89,3.15,3.15,0,0,1,2.24.84,2.76,2.76,0,0,1,.88,2.09,3,3,0,0,1-.88,2.18,3,3,0,0,1-2.24.89A3.09,3.09,0,0,1,310.85,434.59Zm-.07,5.76h4.61v25.44h-4.61Z"/><path class="cls-1" d="M348.17,430.17v35.62h-4.41v-4a10,10,0,0,1-3.89,3.21,12,12,0,0,1-5.19,1.11,13.35,13.35,0,0,1-6.62-1.64,11.6,11.6,0,0,1-4.58-4.58,14.68,14.68,0,0,1,0-13.56,11.74,11.74,0,0,1,4.58-4.56,13.34,13.34,0,0,1,6.62-1.63,12.12,12.12,0,0,1,5,1,9.7,9.7,0,0,1,3.84,3.05v-14Zm-8.73,30.75a8,8,0,0,0,3.07-3.17,10.51,10.51,0,0,0,0-9.36,7.83,7.83,0,0,0-3.07-3.15,9.27,9.27,0,0,0-8.76,0,8,8,0,0,0-3.08,3.15,10.34,10.34,0,0,0,0,9.36,8.24,8.24,0,0,0,3.08,3.17,9.12,9.12,0,0,0,8.76,0Z"/><path class="cls-1" d="M374.26,442.7c1.87,1.73,2.81,4.3,2.81,7.73v15.36H372.7v-3.36a7.26,7.26,0,0,1-3.29,2.71,12.59,12.59,0,0,1-5.06.94,10.57,10.57,0,0,1-6.84-2.07,6.59,6.59,0,0,1-2.57-5.42,6.66,6.66,0,0,1,2.45-5.4q2.44-2,7.77-2h7.3v-.91a5.87,5.87,0,0,0-1.73-4.56,7.27,7.27,0,0,0-5.09-1.59,13.36,13.36,0,0,0-4.41.75,11.29,11.29,0,0,0-3.65,2l-1.92-3.46a14,14,0,0,1,4.7-2.42,19.72,19.72,0,0,1,5.81-.84Q371.45,440.11,374.26,442.7Zm-4.59,18.65a6.75,6.75,0,0,0,2.79-3.34v-3.55h-7.1q-5.87,0-5.86,3.94a3.55,3.55,0,0,0,1.49,3,6.76,6.76,0,0,0,4.13,1.1A8.56,8.56,0,0,0,369.67,461.35Z"/><path class="cls-1" d="M409.75,430.17v35.62h-4.41v-4a10,10,0,0,1-3.89,3.21,12,12,0,0,1-5.18,1.11,13.36,13.36,0,0,1-6.63-1.64,11.6,11.6,0,0,1-4.58-4.58,14.68,14.68,0,0,1,0-13.56,11.74,11.74,0,0,1,4.58-4.56,13.35,13.35,0,0,1,6.63-1.63,12.18,12.18,0,0,1,5,1,9.84,9.84,0,0,1,3.84,3.05v-14ZM401,460.92a8,8,0,0,0,3.07-3.17,10.51,10.51,0,0,0,0-9.36,7.83,7.83,0,0,0-3.07-3.15,9.27,9.27,0,0,0-8.76,0,8,8,0,0,0-3.07,3.15,10.26,10.26,0,0,0,0,9.36,8.14,8.14,0,0,0,3.07,3.17,9.12,9.12,0,0,0,8.76,0Z"/><path class="cls-1" d="M441.39,454.6H420.75a7.93,7.93,0,0,0,2.95,5.4,9.63,9.63,0,0,0,6.26,2,9.45,9.45,0,0,0,7.35-3.07l2.54,3a11.08,11.08,0,0,1-4.3,3.07,16.13,16.13,0,0,1-12.88-.6,11.85,11.85,0,0,1-4.83-4.63,13.37,13.37,0,0,1-1.7-6.72,13.52,13.52,0,0,1,1.65-6.67,12,12,0,0,1,4.56-4.64,13,13,0,0,1,6.56-1.65,12.74,12.74,0,0,1,6.5,1.65,11.65,11.65,0,0,1,4.46,4.64,14,14,0,0,1,1.61,6.81A13.79,13.79,0,0,1,441.39,454.6Zm-18-8.59a8.11,8.11,0,0,0-2.61,5.28h16.32a8.19,8.19,0,0,0-2.62-5.25,8.6,8.6,0,0,0-11.09,0Z"/><path class="cls-1" d="M484.78,430.17v35.62h-4.42v-4a9.94,9.94,0,0,1-3.89,3.21,11.94,11.94,0,0,1-5.18,1.11,13.35,13.35,0,0,1-6.62-1.64,11.62,11.62,0,0,1-4.59-4.58,14.75,14.75,0,0,1,0-13.56,11.77,11.77,0,0,1,4.59-4.56,13.34,13.34,0,0,1,6.62-1.63,12.18,12.18,0,0,1,5,1,9.7,9.7,0,0,1,3.84,3.05v-14ZM476,460.92a7.94,7.94,0,0,0,3.07-3.17,10.42,10.42,0,0,0,0-9.36,7.76,7.76,0,0,0-3.07-3.15,9.27,9.27,0,0,0-8.76,0,8,8,0,0,0-3.07,3.15,10.26,10.26,0,0,0,0,9.36,8.21,8.21,0,0,0,3.07,3.17,9.12,9.12,0,0,0,8.76,0Z"/><path class="cls-1" d="M516.41,454.6H495.77a8,8,0,0,0,3,5.4,9.64,9.64,0,0,0,6.27,2,9.43,9.43,0,0,0,7.34-3.07l2.54,3a11.12,11.12,0,0,1-4.29,3.07,16.16,16.16,0,0,1-12.89-.6,11.76,11.76,0,0,1-4.82-4.63,13.27,13.27,0,0,1-1.71-6.72,13.42,13.42,0,0,1,1.66-6.67,11.83,11.83,0,0,1,4.56-4.64,13,13,0,0,1,6.55-1.65,12.74,12.74,0,0,1,6.5,1.65,11.61,11.61,0,0,1,4.47,4.64,14.1,14.1,0,0,1,1.61,6.81C516.51,453.57,516.47,454,516.41,454.6Zm-18-8.59a8.17,8.17,0,0,0-2.62,5.28h16.32a8.19,8.19,0,0,0-2.62-5.25,8.59,8.59,0,0,0-11.08,0Z"/><path class="cls-1" d="M541.27,436.36v11.72h16.85v4.12H541.27v13.59h-4.8v-33.6h23.72v4.17Z"/><path class="cls-1" d="M569.54,464.4a12.17,12.17,0,0,1-4.72-4.64,14,14,0,0,1,0-13.39,12,12,0,0,1,4.72-4.61,14,14,0,0,1,6.82-1.65,13.84,13.84,0,0,1,6.79,1.65,12.13,12.13,0,0,1,4.71,4.61,14,14,0,0,1,0,13.39,12.28,12.28,0,0,1-4.71,4.64,13.65,13.65,0,0,1-6.79,1.68A13.82,13.82,0,0,1,569.54,464.4Zm11.21-3.48a8,8,0,0,0,3-3.17,10.51,10.51,0,0,0,0-9.36,7.84,7.84,0,0,0-3-3.15,9.31,9.31,0,0,0-8.78,0,8,8,0,0,0-3.07,3.15,10.26,10.26,0,0,0,0,9.36,8.14,8.14,0,0,0,3.07,3.17,9.16,9.16,0,0,0,8.78,0Z"/><path class="cls-1" d="M603.91,441.26a12.86,12.86,0,0,1,5.71-1.15v4.46a9.15,9.15,0,0,0-1-.05,7.74,7.74,0,0,0-5.88,2.24,8.79,8.79,0,0,0-2.14,6.36v12.67h-4.61V440.35h4.42v4.27A7.87,7.87,0,0,1,603.91,441.26Z"/><path class="cls-1" d="M630.65,464.3a6.77,6.77,0,0,1-2.5,1.32,10.52,10.52,0,0,1-3.07.46,8.14,8.14,0,0,1-6-2.07,7.85,7.85,0,0,1-2.11-5.9v-14H612.7v-3.79H617v-5.57h4.61v5.57h7.29v3.79h-7.29v13.78a4.44,4.44,0,0,0,1,3.16,3.82,3.82,0,0,0,3,1.11,5.55,5.55,0,0,0,3.6-1.2Z"/><path class="cls-1" d="M653.57,442.7c1.87,1.73,2.81,4.3,2.81,7.73v15.36H652v-3.36a7.32,7.32,0,0,1-3.29,2.71,12.62,12.62,0,0,1-5.06.94,10.57,10.57,0,0,1-6.84-2.07,6.59,6.59,0,0,1-2.57-5.42,6.66,6.66,0,0,1,2.45-5.4q2.44-2,7.77-2h7.3v-.91a5.87,5.87,0,0,0-1.73-4.56,7.27,7.27,0,0,0-5.09-1.59,13.36,13.36,0,0,0-4.41.75,11.29,11.29,0,0,0-3.65,2L635,443.37a14,14,0,0,1,4.7-2.42,19.72,19.72,0,0,1,5.81-.84Q650.76,440.11,653.57,442.7ZM649,461.35a6.75,6.75,0,0,0,2.79-3.34v-3.55h-7.11q-5.85,0-5.85,3.94a3.53,3.53,0,0,0,1.49,3,6.75,6.75,0,0,0,4.12,1.1A8.59,8.59,0,0,0,649,461.35Z"/><path class="cls-1" d="M664.92,430.17h4.61v35.62h-4.61Z"/><path class="cls-1" d="M701.21,454.6H680.57a7.93,7.93,0,0,0,2.95,5.4,9.63,9.63,0,0,0,6.26,2,9.45,9.45,0,0,0,7.35-3.07l2.54,3a11.08,11.08,0,0,1-4.3,3.07,16.13,16.13,0,0,1-12.88-.6,11.85,11.85,0,0,1-4.83-4.63,13.37,13.37,0,0,1-1.7-6.72,13.52,13.52,0,0,1,1.65-6.67,12,12,0,0,1,4.56-4.64,13,13,0,0,1,6.56-1.65,12.74,12.74,0,0,1,6.5,1.65,11.65,11.65,0,0,1,4.46,4.64,14,14,0,0,1,1.61,6.81A13.79,13.79,0,0,1,701.21,454.6Zm-18-8.59a8.11,8.11,0,0,0-2.61,5.28h16.32a8.19,8.19,0,0,0-2.62-5.25,8.6,8.6,0,0,0-11.09,0Z"/><path class="cls-1" d="M726.31,462v3.79H705v-3l15-18.67H705.29v-3.79h20.64v3L710.9,462Z"/><path class="cls-1" d="M749.81,442.7c1.87,1.73,2.81,4.3,2.81,7.73v15.36h-4.37v-3.36a7.32,7.32,0,0,1-3.29,2.71,12.64,12.64,0,0,1-5.07.94,10.61,10.61,0,0,1-6.84-2.07,6.6,6.6,0,0,1-2.56-5.42,6.68,6.68,0,0,1,2.44-5.4q2.46-2,7.78-2H748v-.91a5.87,5.87,0,0,0-1.73-4.56,7.27,7.27,0,0,0-5.09-1.59,13.31,13.31,0,0,0-4.41.75,11.29,11.29,0,0,0-3.65,2l-1.92-3.46a14,14,0,0,1,4.7-2.42,19.72,19.72,0,0,1,5.81-.84C745.24,440.11,747.93,441,749.81,442.7Zm-4.59,18.65A6.75,6.75,0,0,0,748,458v-3.55H740.9q-5.85,0-5.85,3.94a3.53,3.53,0,0,0,1.49,3,6.75,6.75,0,0,0,4.12,1.1A8.59,8.59,0,0,0,745.22,461.35Z"/><path class="cls-1" d="M199.18,532.82v2.68H178.39V506.1h20.16v2.69H181.49v10.46H196.7v2.65H181.49v10.92Z"/><path class="cls-1" d="M223.72,515.66q2.46,2.42,2.46,7V535.5h-3V523a7.3,7.3,0,0,0-1.72-5.25,6.46,6.46,0,0,0-4.92-1.81,7.53,7.53,0,0,0-5.64,2.12,8,8,0,0,0-2.08,5.86V535.5h-3V513.41h2.86v4.07a8.29,8.29,0,0,1,3.38-3.12,10.73,10.73,0,0,1,5-1.12A9,9,0,0,1,223.72,515.66Z"/><path class="cls-1" d="M235.06,534.94a11.11,11.11,0,0,1-3.84-2l1.35-2.35a11.37,11.37,0,0,0,3.48,1.79,13.92,13.92,0,0,0,4.37.69,8.32,8.32,0,0,0,4.47-1,3,3,0,0,0,1.45-2.66,2.37,2.37,0,0,0-.8-1.91,5.06,5.06,0,0,0-2-1.05,29.71,29.71,0,0,0-3.24-.7,35.73,35.73,0,0,1-4.32-1,6.38,6.38,0,0,1-2.8-1.78,5,5,0,0,1-1.15-3.49,5.44,5.44,0,0,1,2.31-4.53,10.34,10.34,0,0,1,6.42-1.77,16.64,16.64,0,0,1,4.29.57,12.06,12.06,0,0,1,3.53,1.49l-1.31,2.39a11.22,11.22,0,0,0-6.51-1.89,7.56,7.56,0,0,0-4.3,1,3.09,3.09,0,0,0-1.45,2.65,2.62,2.62,0,0,0,.82,2,5.09,5.09,0,0,0,2,1.11,31.79,31.79,0,0,0,3.36.73,39.11,39.11,0,0,1,4.24,1,6.33,6.33,0,0,1,2.73,1.72,4.76,4.76,0,0,1,1.13,3.36,5.34,5.34,0,0,1-2.41,4.6,11.43,11.43,0,0,1-6.7,1.7A17.26,17.26,0,0,1,235.06,534.94Z"/><path class="cls-1" d="M254.78,508a2.05,2.05,0,0,1-.63-1.51,2,2,0,0,1,.63-1.47,2.26,2.26,0,0,1,3.11,0,1.94,1.94,0,0,1,.63,1.45,2.2,2.2,0,0,1-3.74,1.55Zm.05,5.46h3V535.5h-3Z"/><path class="cls-1" d="M284,515.66q2.46,2.42,2.46,7V535.5h-3V523a7.34,7.34,0,0,0-1.72-5.25,6.46,6.46,0,0,0-4.92-1.81,7.57,7.57,0,0,0-5.65,2.12,8.05,8.05,0,0,0-2.08,5.86V535.5h-3V513.41H269v4.07a8.29,8.29,0,0,1,3.38-3.12,10.71,10.71,0,0,1,5-1.12A9,9,0,0,1,284,515.66Z"/><path class="cls-1" d="M308.92,515.41q2.31,2.16,2.31,6.4V535.5h-2.86v-3.44a6.86,6.86,0,0,1-3,2.69,10.41,10.41,0,0,1-4.64,1,9.14,9.14,0,0,1-5.88-1.76,5.71,5.71,0,0,1-2.18-4.66,5.65,5.65,0,0,1,2-4.54c1.35-1.15,3.52-1.72,6.48-1.72h7v-1.34a5.63,5.63,0,0,0-1.6-4.35,6.56,6.56,0,0,0-4.66-1.49,11.89,11.89,0,0,0-4,.69,10.11,10.11,0,0,0-3.32,1.91l-1.34-2.22a11.8,11.8,0,0,1,4-2.21,15.64,15.64,0,0,1,4.95-.78Q306.62,513.24,308.92,515.41Zm-3.36,16.8a7,7,0,0,0,2.69-3.34v-3.62h-6.93q-5.67,0-5.67,4a3.62,3.62,0,0,0,1.47,3,6.69,6.69,0,0,0,4.11,1.11A7.86,7.86,0,0,0,305.56,532.21Z"/><path class="cls-1" d="M337.21,515.66q2.44,2.42,2.45,7V535.5h-3V523a7.3,7.3,0,0,0-1.72-5.25,6.45,6.45,0,0,0-4.91-1.81,7.56,7.56,0,0,0-5.65,2.12,8,8,0,0,0-2.08,5.86V535.5h-3V513.41h2.85v4.07a8.29,8.29,0,0,1,3.38-3.12,10.73,10.73,0,0,1,5-1.12A9,9,0,0,1,337.21,515.66Z"/><path class="cls-1" d="M368,504.34V535.5h-2.85v-4.37a9.14,9.14,0,0,1-3.55,3.41,10.46,10.46,0,0,1-5,1.17,11.15,11.15,0,0,1-5.63-1.43,10.15,10.15,0,0,1-3.94-4,12.62,12.62,0,0,1,0-11.67,10,10,0,0,1,3.94-4,11.34,11.34,0,0,1,5.63-1.41,10.35,10.35,0,0,1,4.85,1.12,9.14,9.14,0,0,1,3.55,3.25V504.34ZM361.06,532a7.58,7.58,0,0,0,2.94-3,10,10,0,0,0,0-9,7.55,7.55,0,0,0-2.94-3,8.18,8.18,0,0,0-4.18-1.07,8.3,8.3,0,0,0-4.22,1.07,7.69,7.69,0,0,0-2.94,3,10,10,0,0,0,0,9,7.71,7.71,0,0,0,2.94,3,8.4,8.4,0,0,0,4.22,1.07A8.28,8.28,0,0,0,361.06,532Z"/><path class="cls-1" d="M379.6,534.26a10.56,10.56,0,0,1-4-4,12.16,12.16,0,0,1,0-11.59,10.44,10.44,0,0,1,4-4,12.3,12.3,0,0,1,11.51,0,10.19,10.19,0,0,1,4,4,12.31,12.31,0,0,1,0,11.59,10.31,10.31,0,0,1-4,4,12.15,12.15,0,0,1-11.51,0Zm10-2.26a7.47,7.47,0,0,0,2.92-3,10.15,10.15,0,0,0,0-9,7.44,7.44,0,0,0-2.92-3,8.86,8.86,0,0,0-8.44,0,7.55,7.55,0,0,0-2.94,3,10,10,0,0,0,0,9,7.58,7.58,0,0,0,2.94,3,8.86,8.86,0,0,0,8.44,0Z"/><path class="cls-1" d="M432.9,525.38H414.42a7.91,7.91,0,0,0,2.65,5.57,8.81,8.81,0,0,0,6.05,2.12,9.55,9.55,0,0,0,3.78-.74,8.33,8.33,0,0,0,3-2.16l1.68,1.93a9.48,9.48,0,0,1-3.68,2.69,12.51,12.51,0,0,1-4.85.92,12.16,12.16,0,0,1-6-1.45,10.4,10.4,0,0,1-4.1-4,11.41,11.41,0,0,1-1.47-5.79,11.83,11.83,0,0,1,1.41-5.8,10.15,10.15,0,0,1,3.86-4,11.35,11.35,0,0,1,11,0,10.2,10.2,0,0,1,3.82,4,12,12,0,0,1,1.38,5.82Zm-16-7.54a8,8,0,0,0-2.46,5.31h15.67a8,8,0,0,0-2.46-5.31,8.1,8.1,0,0,0-10.75,0Z"/><path class="cls-1" d="M464.4,515.41q2.31,2.16,2.31,6.4V535.5h-2.85v-3.44a6.89,6.89,0,0,1-3,2.69,10.38,10.38,0,0,1-4.64,1,9.14,9.14,0,0,1-5.88-1.76,5.71,5.71,0,0,1-2.18-4.66,5.65,5.65,0,0,1,2-4.54q2-1.72,6.49-1.72h7v-1.34a5.63,5.63,0,0,0-1.6-4.35,6.54,6.54,0,0,0-4.66-1.49,11.89,11.89,0,0,0-4,.69,10.21,10.21,0,0,0-3.32,1.91l-1.34-2.22a11.8,11.8,0,0,1,4-2.21,15.66,15.66,0,0,1,5-.78Q462.09,513.24,464.4,515.41ZM461,532.21a6.91,6.91,0,0,0,2.69-3.34v-3.62H456.8q-5.67,0-5.67,4a3.62,3.62,0,0,0,1.47,3,6.71,6.71,0,0,0,4.12,1.11A7.83,7.83,0,0,0,461,532.21Z"/><path class="cls-1" d="M491.83,514.65a10.12,10.12,0,0,1,3.95,4,12.8,12.8,0,0,1,0,11.72,10.27,10.27,0,0,1-3.93,4,11.41,11.41,0,0,1-5.65,1.4,10.46,10.46,0,0,1-4.85-1.11,9.16,9.16,0,0,1-3.55-3.26v12.31h-3V513.41h2.85v4.37a9.16,9.16,0,0,1,3.55-3.36,10.46,10.46,0,0,1,5-1.18A11.34,11.34,0,0,1,491.83,514.65ZM490.19,532a7.56,7.56,0,0,0,3-3,9.93,9.93,0,0,0,0-9,7.73,7.73,0,0,0-3-3,8.68,8.68,0,0,0-8.42,0,7.75,7.75,0,0,0-2.94,3,9.93,9.93,0,0,0,0,9,7.58,7.58,0,0,0,2.94,3,8.82,8.82,0,0,0,8.42,0Z"/><path class="cls-1" d="M509.28,514.38a10.59,10.59,0,0,1,5.14-1.14v2.9l-.71,0a7.06,7.06,0,0,0-5.46,2.14,8.52,8.52,0,0,0-2,6V535.5h-3V513.41h2.86v4.33A7.15,7.15,0,0,1,509.28,514.38Z"/><path class="cls-1" d="M538.83,525.38H520.35A7.9,7.9,0,0,0,523,531a8.81,8.81,0,0,0,6,2.12,9.55,9.55,0,0,0,3.78-.74,8.25,8.25,0,0,0,3-2.16l1.68,1.93a9.45,9.45,0,0,1-3.67,2.69,12.55,12.55,0,0,1-4.85.92,12.23,12.23,0,0,1-6-1.45,10.4,10.4,0,0,1-4.1-4,11.41,11.41,0,0,1-1.47-5.79,11.83,11.83,0,0,1,1.41-5.8,10.22,10.22,0,0,1,3.86-4,10.82,10.82,0,0,1,5.53-1.43,10.69,10.69,0,0,1,5.5,1.43,10.13,10.13,0,0,1,3.82,4,11.87,11.87,0,0,1,1.39,5.82Zm-16-7.54a8,8,0,0,0-2.45,5.31H536a8,8,0,0,0-2.46-5.31,8.1,8.1,0,0,0-10.75,0Z"/><path class="cls-1" d="M562.83,515.66q2.46,2.42,2.46,7V535.5h-3V523a7.3,7.3,0,0,0-1.72-5.25,6.45,6.45,0,0,0-4.91-1.81,7.56,7.56,0,0,0-5.65,2.12,8,8,0,0,0-2.08,5.86V535.5h-3V513.41h2.85v4.07a8.35,8.35,0,0,1,3.38-3.12,10.76,10.76,0,0,1,5-1.12A9,9,0,0,1,562.83,515.66Z"/><path class="cls-1" d="M593.63,504.34V535.5h-2.85v-4.37a9.14,9.14,0,0,1-3.55,3.41,10.46,10.46,0,0,1-5,1.17,11.15,11.15,0,0,1-5.63-1.43,10.15,10.15,0,0,1-3.94-4,12.62,12.62,0,0,1,0-11.67,10,10,0,0,1,3.94-4,11.34,11.34,0,0,1,5.63-1.41,10.35,10.35,0,0,1,4.85,1.12,9.14,9.14,0,0,1,3.55,3.25V504.34Zm-7,27.66a7.58,7.58,0,0,0,2.94-3,10,10,0,0,0,0-9,7.55,7.55,0,0,0-2.94-3,8.18,8.18,0,0,0-4.18-1.07,8.3,8.3,0,0,0-4.22,1.07,7.69,7.69,0,0,0-2.94,3,10,10,0,0,0,0,9,7.71,7.71,0,0,0,2.94,3,8.4,8.4,0,0,0,4.22,1.07A8.28,8.28,0,0,0,586.68,532Z"/><path class="cls-1" d="M621.19,525.38H602.71a7.9,7.9,0,0,0,2.64,5.57,8.81,8.81,0,0,0,6,2.12,9.55,9.55,0,0,0,3.78-.74,8.25,8.25,0,0,0,3-2.16l1.68,1.93a9.45,9.45,0,0,1-3.67,2.69,12.55,12.55,0,0,1-4.85.92,12.23,12.23,0,0,1-6-1.45,10.4,10.4,0,0,1-4.1-4,11.41,11.41,0,0,1-1.47-5.79,11.83,11.83,0,0,1,1.41-5.8,10.18,10.18,0,0,1,3.87-4,11.33,11.33,0,0,1,11,0,10.13,10.13,0,0,1,3.82,4,11.87,11.87,0,0,1,1.39,5.82Zm-16-7.54a8,8,0,0,0-2.45,5.31h15.66a8,8,0,0,0-2.45-5.31,7.59,7.59,0,0,0-5.4-2A7.51,7.51,0,0,0,605.16,517.84Z"/><path class="cls-1" d="M645.19,515.66q2.46,2.42,2.46,7V535.5h-3V523a7.3,7.3,0,0,0-1.72-5.25,6.45,6.45,0,0,0-4.91-1.81,7.56,7.56,0,0,0-5.65,2.12,8,8,0,0,0-2.08,5.86V535.5h-3V513.41h2.85v4.07a8.35,8.35,0,0,1,3.38-3.12,10.76,10.76,0,0,1,5-1.12A9,9,0,0,1,645.19,515.66Z"/><path class="cls-1" d="M676,504.34V535.5h-2.86v-4.37a9.14,9.14,0,0,1-3.55,3.41,10.46,10.46,0,0,1-5,1.17,11.17,11.17,0,0,1-5.63-1.43,10.15,10.15,0,0,1-3.94-4,12.62,12.62,0,0,1,0-11.67,10,10,0,0,1,3.94-4,11.37,11.37,0,0,1,5.63-1.41,10.35,10.35,0,0,1,4.85,1.12,9.07,9.07,0,0,1,3.55,3.25V504.34ZM669,532a7.58,7.58,0,0,0,2.94-3,10,10,0,0,0,0-9,7.55,7.55,0,0,0-2.94-3,8.17,8.17,0,0,0-4.17-1.07,8.31,8.31,0,0,0-4.23,1.07,7.69,7.69,0,0,0-2.94,3,10,10,0,0,0,0,9,7.71,7.71,0,0,0,2.94,3,8.42,8.42,0,0,0,4.23,1.07A8.27,8.27,0,0,0,669,532Z"/><path class="cls-1" d="M687.59,534.26a10.52,10.52,0,0,1-4-4,12.16,12.16,0,0,1,0-11.59,10.4,10.4,0,0,1,4-4,12.28,12.28,0,0,1,11.5,0,10.28,10.28,0,0,1,4,4,12.38,12.38,0,0,1,0,11.59,10.4,10.4,0,0,1-4,4,12.13,12.13,0,0,1-11.5,0Zm10-2.26a7.47,7.47,0,0,0,2.92-3,10.15,10.15,0,0,0,0-9,7.44,7.44,0,0,0-2.92-3,8.86,8.86,0,0,0-8.44,0,7.55,7.55,0,0,0-2.94,3,10,10,0,0,0,0,9,7.58,7.58,0,0,0,2.94,3,8.86,8.86,0,0,0,8.44,0Z"/></svg>