<svg width="147" height="368" viewBox="0 0 147 368" fill="none" xmlns="http://www.w3.org/2000/svg">
<path fill-rule="evenodd" clip-rule="evenodd" d="M146.159 29.9979C147.573 22.9268 145.452 19.3913 139.795 15.1486C129.188 7.37046 119.996 -0.407718 109.389 0.299389C39.3857 3.83491 4.73742 71.0101 0.494777 179.905C-3.04076 289.506 27.3649 358.095 95.9542 367.288C107.268 368.702 117.167 361.631 127.774 353.853C134.138 350.317 136.259 346.782 135.552 339.004C134.845 338.297 122.117 271.828 122.117 271.828C115.046 259.101 91.7116 262.636 80.3978 264.05C68.377 264.757 61.306 260.515 59.8917 252.029C51.4065 208.189 53.5278 155.156 64.8415 112.729C66.9628 103.537 74.0339 99.2944 85.3476 102.123C97.3684 102.83 119.996 108.487 127.774 96.4659C127.774 96.4659 146.159 31.4121 146.159 29.9979Z" fill="#007AFE"/>
</svg>