<svg id="Camada_1" data-name="Camada 1" xmlns="http://www.w3.org/2000/svg" xmlns:xlink="http://www.w3.org/1999/xlink" viewBox="0 0 169.39 169.39"><defs><style>.cls-1{fill:#fff;}.cls-2{fill:url(#Gradiente_sem_nome_6);}.cls-3{fill:url(#Gradiente_sem_nome_6-2);}.cls-4{fill:url(#Gradiente_sem_nome_6-3);}.cls-5{fill:url(#Gradiente_sem_nome_6-4);}</style><linearGradient id="Gradiente_sem_nome_6" x1="44.84" y1="-661.09" x2="125.48" y2="-661.52" gradientTransform="matrix(1, 0, 0, -1, 0, -576.61)" gradientUnits="userSpaceOnUse"><stop offset="0" stop-color="#015eea"/><stop offset="1" stop-color="#00c0fa"/></linearGradient><linearGradient id="Gradiente_sem_nome_6-2" x1="53.01" y1="84.94" x2="66.46" y2="84.94" gradientTransform="matrix(1, 0, 0, 1, 0, 0)" xlink:href="#Gradiente_sem_nome_6"/><linearGradient id="Gradiente_sem_nome_6-3" x1="77.72" y1="84.94" x2="91.17" y2="84.94" gradientTransform="matrix(1, 0, 0, 1, 0, 0)" xlink:href="#Gradiente_sem_nome_6"/><linearGradient id="Gradiente_sem_nome_6-4" x1="102.42" y1="84.94" x2="115.87" y2="84.94" gradientTransform="matrix(1, 0, 0, 1, 0, 0)" xlink:href="#Gradiente_sem_nome_6"/></defs><circle class="cls-1" cx="84.7" cy="84.7" r="80"/><path class="cls-2" d="M117.18,93.56a33.83,33.83,0,0,1-20,22.41c.55-1.07,1.07-2.2,1.56-3.42A68.71,68.71,0,0,0,103,94a1.38,1.38,0,0,0-1.38-1.51H96.82a1.39,1.39,0,0,0-1.37,1.24,60.52,60.52,0,0,1-3.65,16c-2.09,5.22-4.88,8.6-7.11,8.6s-5-3.38-7.11-8.6a60.53,60.53,0,0,1-3.64-16,1.38,1.38,0,0,0-1.37-1.24H67.83A1.38,1.38,0,0,0,66.45,94a68.34,68.34,0,0,0,4.19,18.51c.48,1.22,1,2.35,1.55,3.42a33.84,33.84,0,0,1-20-22.41,1.39,1.39,0,0,0-1.33-1H46a1.39,1.39,0,0,0-1.34,1.72,41.16,41.16,0,0,0,80.07,0,1.38,1.38,0,0,0-1.34-1.72h-4.88A1.37,1.37,0,0,0,117.18,93.56Zm-32.49-50A41.23,41.23,0,0,0,44.21,77.27h7.64A33.82,33.82,0,0,1,72.19,53.43c-.54,1.07-1.07,2.2-1.55,3.42a68.59,68.59,0,0,0-4.23,18.91,1.38,1.38,0,0,0,1.38,1.51h4.75A1.37,1.37,0,0,0,73.9,76a60.87,60.87,0,0,1,3.68-16.38c2.1-5.22,4.89-8.6,7.11-8.6s5,3.38,7.11,8.6A60.85,60.85,0,0,1,95.5,76a1.39,1.39,0,0,0,1.37,1.26h4.73A1.38,1.38,0,0,0,103,75.76a69,69,0,0,0-4.23-18.91c-.49-1.22-1-2.35-1.56-3.42a33.84,33.84,0,0,1,20.1,22.79,1.39,1.39,0,0,0,1.33,1h4.87a1.39,1.39,0,0,0,1.34-1.71A41.24,41.24,0,0,0,84.69,43.54Z"/><path class="cls-3" d="M66.39,82.44l-1.87,5.27A2,2,0,0,1,62.68,89h0a2,2,0,0,1-1.84-1.31l-1.07-3.11-1.13,3.13A2,2,0,0,1,56.81,89h0A2,2,0,0,1,55,87.71l-1.87-5.27a1.18,1.18,0,0,1,1.11-1.57h.19a1.17,1.17,0,0,1,1.11.8l1.4,4.12,1.44-4.13a1.2,1.2,0,0,1,1.12-.79h.75a1.17,1.17,0,0,1,1.11.8l1.41,4.17,1.45-4.18a1.19,1.19,0,0,1,1.11-.79h0A1.18,1.18,0,0,1,66.39,82.44Z"/><path class="cls-4" d="M91.1,82.44l-1.88,5.27A1.94,1.94,0,0,1,87.39,89h0a2,2,0,0,1-1.84-1.31l-1.08-3.11-1.13,3.13A1.94,1.94,0,0,1,81.51,89h0a2,2,0,0,1-1.83-1.29l-1.87-5.27a1.17,1.17,0,0,1,1.1-1.57h.19a1.17,1.17,0,0,1,1.12.8l1.39,4.12L83,81.66a1.19,1.19,0,0,1,1.11-.79h.75a1.18,1.18,0,0,1,1.12.8l1.41,4.17,1.45-4.18A1.18,1.18,0,0,1,90,80.87h0A1.18,1.18,0,0,1,91.1,82.44Z"/><path class="cls-5" d="M115.8,82.44l-2.06,5.78a1.16,1.16,0,0,1-1.1.78h-1.1a1.19,1.19,0,0,1-1.11-.79l-1.25-3.63-1.31,3.64a1.19,1.19,0,0,1-1.11.78h-1.11a1.16,1.16,0,0,1-1.1-.78l-2.06-5.78a1.18,1.18,0,0,1,1.11-1.57h.19a1.17,1.17,0,0,1,1.11.8l1.4,4.12,1.44-4.13a1.19,1.19,0,0,1,1.11-.79h.76a1.17,1.17,0,0,1,1.11.8l1.41,4.17,1.45-4.18a1.18,1.18,0,0,1,1.11-.79h0A1.18,1.18,0,0,1,115.8,82.44Z"/></svg>