<svg id="Camada_1" data-name="Camada 1" xmlns="http://www.w3.org/2000/svg" xmlns:xlink="http://www.w3.org/1999/xlink" viewBox="0 0 169.39 169.39"><defs><style>.cls-1{fill:#fff;}.cls-2{fill:url(#Gradiente_sem_nome_6);}</style><linearGradient id="Gradiente_sem_nome_6" x1="60.34" y1="84.7" x2="100.4" y2="84.7" gradientUnits="userSpaceOnUse"><stop offset="0" stop-color="#015eea"/><stop offset="1" stop-color="#00c0fa"/></linearGradient></defs><circle class="cls-1" cx="84.7" cy="84.7" r="80"/><path class="cls-2" d="M98.62,115.16a42.45,42.45,0,0,1-7.92-10.93,6.12,6.12,0,0,0-5.08-3.31L75.19,99.47C72,88.89,72,80.4,75.18,69.92l10.15-1.43a6.05,6.05,0,0,0,5.38-3.28,42.52,42.52,0,0,1,7.94-10.95,6,6,0,0,0,0-8.49l-9.71-9.71a6,6,0,0,0-8.49,0,68.85,68.85,0,0,0,0,97.27,6,6,0,0,0,8.49,0l9.68-9.68A6,6,0,0,0,98.62,115.16Z"/></svg>