<svg width="93" height="93" viewBox="0 0 93 93" fill="none" xmlns="http://www.w3.org/2000/svg">
<path d="M83.0809 18.2599C82.991 18.135 82.887 18.0209 82.7709 17.9199C78.7828 12.8518 73.7806 8.67211 68.0843 5.64835C62.3881 2.62459 56.1233 0.823347 49.6909 0.359917C47.5103 -0.119972 45.2515 -0.119972 43.0709 0.359917C36.64 0.820897 30.3762 2.61904 24.6801 5.63931C18.9839 8.65961 13.9808 12.8355 9.99086 17.8999C9.87476 18.0009 9.77076 18.115 9.68086 18.2399C9.68086 18.2899 9.63086 18.3499 9.60086 18.3999C3.39447 26.4625 0.0199784 36.3466 8.84324e-05 46.5213C-0.0198016 56.6959 3.31603 66.5932 9.49086 74.6799C9.51346 74.7352 9.54016 74.7887 9.57086 74.8399C9.66076 74.9648 9.76476 75.0789 9.88086 75.1799C14.2108 80.728 19.7486 85.2161 26.0733 88.3029C32.398 91.3897 39.3431 92.9941 46.3809 92.9941C53.4187 92.9941 60.3638 91.3897 66.6885 88.3029C73.0132 85.2161 78.5509 80.728 82.8809 75.1799C82.9935 75.0783 83.0941 74.9643 83.1809 74.8399C83.2115 74.7887 83.2383 74.7352 83.2609 74.6799C89.4357 66.5932 92.7715 56.6959 92.7517 46.5213C92.7318 36.3466 89.3573 26.4625 83.1509 18.3999C83.1309 18.3499 83.1109 18.2599 83.0809 18.2599ZM32.7009 6.49991C28.8409 10.5399 25.6409 16.2599 23.3809 23.1599C20.2429 22.0643 17.2269 20.6468 14.3809 18.9299C19.2844 13.2434 25.6049 8.95501 32.7009 6.49991ZM11.8409 22.0899C15.1378 24.1102 18.6494 25.757 22.3109 26.9999C20.8649 32.7615 20.0864 38.6704 19.9909 44.6099H4.05085C4.4268 36.5101 7.13166 28.6908 11.8409 22.0899ZM11.7309 70.9699C7.08266 64.4057 4.41699 56.6449 4.05085 48.6099H20.0509C20.1692 54.4726 20.9508 60.3031 22.3809 65.9899C18.6543 67.2425 15.0815 68.9132 11.7309 70.9699ZM14.2009 74.1499C17.1301 72.3782 20.2413 70.9266 23.4809 69.8199C25.8409 77.0099 29.2609 82.9299 33.3809 86.9599C25.931 84.5353 19.2943 80.1027 14.2009 74.1499ZM44.3809 88.5799C37.3109 87.3399 31.0809 79.5799 27.3809 68.5799C32.9293 67.0897 38.6372 66.2738 44.3809 66.1499V88.5799ZM44.3809 62.1699C38.2614 62.3029 32.1806 63.1759 26.2709 64.7699C24.9091 59.4857 24.1476 54.0648 24.0009 48.6099H44.3809V62.1699ZM44.3809 44.6099H23.9909C24.1106 39.0935 24.8554 33.6085 26.2109 28.2599C32.1414 29.8479 38.2426 30.7109 44.3809 30.8299V44.6099ZM44.3809 26.8299C38.6368 26.6945 32.9295 25.872 27.3809 24.3799C30.8909 13.6199 36.9009 5.90992 43.7509 4.31992L44.3809 4.25992V26.8299ZM78.4309 18.9299C75.5691 20.6499 72.5361 22.0675 69.3809 23.1599C67.1209 16.2599 63.9209 10.5399 60.0609 6.49991C67.175 8.94721 73.5135 13.2361 78.4309 18.9299ZM48.3809 4.25992H49.0109C55.8609 5.90992 61.8709 13.6199 65.3809 24.3799C59.8323 25.872 54.125 26.6945 48.3809 26.8299V4.25992ZM48.3809 30.8099C54.5184 30.6974 60.6195 29.8412 66.5509 28.2599C67.9102 33.6248 68.655 39.1268 68.7709 44.6599H48.3809V30.8099ZM48.3809 48.5899H68.7609C68.6142 54.0448 67.8527 59.4657 66.4909 64.7499C60.5804 63.1627 54.4995 62.2964 48.3809 62.1699V48.5899ZM48.3809 88.5899V66.1699C54.1246 66.2938 59.8325 67.1097 65.3809 68.5999C61.6809 79.5799 55.4509 87.3399 48.3809 88.5799V88.5899ZM59.3809 86.9599C63.5209 82.9599 66.9409 76.9599 69.3009 69.8199C72.5404 70.9266 75.6516 72.3782 78.5809 74.1499C73.482 80.1058 66.838 84.5386 59.3809 86.9599ZM81.0509 70.9599C77.7075 68.8976 74.1415 67.2203 70.4209 65.9599C71.8611 60.2742 72.6528 54.4438 72.7809 48.5799H88.7809C88.3999 56.6323 85.7095 64.405 81.0309 70.9699L81.0509 70.9599ZM72.7709 44.6099C72.6754 38.6704 71.8969 32.7615 70.4509 26.9999C74.1123 25.757 77.624 24.1102 80.9209 22.0899C85.6301 28.6908 88.3349 36.5101 88.7109 44.6099H72.7709Z" fill="#007AFE"/>
</svg>