<svg id="Camada_1" data-name="Camada 1" xmlns="http://www.w3.org/2000/svg" xmlns:xlink="http://www.w3.org/1999/xlink" viewBox="0 0 169.39 169.39"><defs><style>.cls-1{fill:#fff;}.cls-2{fill-rule:evenodd;fill:url(#Gradiente_sem_nome_6);}</style><linearGradient id="Gradiente_sem_nome_6" x1="42.74" y1="80.7" x2="126.65" y2="80.7" gradientUnits="userSpaceOnUse"><stop offset="0" stop-color="#015eea"/><stop offset="1" stop-color="#00c0fa"/></linearGradient></defs><circle class="cls-1" cx="84.7" cy="84.7" r="80"/><path class="cls-2" d="M114.43,50.79A41.79,41.79,0,0,0,48.67,101.2l-5.93,21.65L64.89,117a41.68,41.68,0,0,0,20,5.09h0a41.8,41.8,0,0,0,29.56-71.34ZM84.87,115.07h0a34.61,34.61,0,0,1-17.68-4.84l-1.27-.75-13.14,3.45,3.51-12.82-.83-1.31a34.73,34.73,0,1,1,29.42,16.27Zm19-26c-1-.52-6.18-3-7.13-3.39s-1.66-.52-2.35.52-2.7,3.4-3.31,4.09-1.22.79-2.26.27a28.8,28.8,0,0,1-8.4-5.19,31.22,31.22,0,0,1-5.8-7.23c-.61-1,0-1.55.45-2.13a28.18,28.18,0,0,0,2.61-3.57,1.92,1.92,0,0,0-.08-1.83c-.26-.52-2.35-5.66-3.22-7.75s-1.71-1.76-2.35-1.79-1.31,0-2,0a3.83,3.83,0,0,0-2.79,1.31A11.72,11.72,0,0,0,63.64,71c0,5.14,3.74,10.1,4.26,10.8S75.27,93.08,85.74,97.6a58.27,58.27,0,0,0,6,2.2,14.33,14.33,0,0,0,6.57.41c2-.3,6.18-2.52,7-5s.87-4.53.61-5S105,89.59,103.92,89.06Z"/></svg>